<svg width="246" height="142" viewBox="0 0 246 142" fill="none" xmlns="http://www.w3.org/2000/svg">
<path fill-rule="evenodd" clip-rule="evenodd" d="M154.876 21.6889C154.258 22.6053 155.462 24.7119 159.415 29.7465C168.77 41.4784 180.633 52.4926 192.196 60.0309L197.448 63.5098L195.56 68.2569C191.978 77.5666 190.069 89.314 190.181 101.193C190.237 110.894 192.883 122.389 196.194 127.375C196.493 127.841 194.811 127.056 192.464 125.693C188.259 123.197 186.645 122.736 184.963 123.456C182.922 124.306 184.268 125.749 191.873 131.026C196.08 133.959 200.397 137.358 201.639 138.776C202.928 140.184 204.299 141.525 204.731 141.719C205.889 142.331 207.936 141.723 208.384 140.699C208.614 140.21 208.284 137.032 207.514 132.978C206.108 125.037 206.057 122.233 207.171 115.132C207.648 112.305 207.926 109.665 207.832 109.249C207.279 106.801 203.281 112.122 202.282 116.722C201.898 118.459 201.594 121.198 201.627 122.846C201.669 124.536 201.545 125.923 201.361 125.965C201.222 125.996 200.376 124.828 199.548 123.316C197.175 119.041 195.282 109.803 195.249 102.14C195.199 94.1852 195.952 86.7765 197.424 80.376C198.637 74.9996 201.646 66.1644 202.338 66.0078C202.523 65.9661 204.214 66.3607 206.121 66.8521C207.982 67.3539 210.486 67.9049 211.636 68.0332C221.769 69.2389 229.81 64.4123 232.192 55.8104C232.896 53.127 232.948 51.8531 232.485 48.9427C231.756 44.6414 230.674 42.6475 227.961 40.7363C224.15 38.0535 218.457 38.6603 213.165 42.3319C209.686 44.7684 206.535 48.2474 202.73 53.9668L199.358 59.049L195.636 56.5406C186.852 50.5588 175.804 40.574 165.789 29.5737C158.755 21.8858 157.529 20.7551 156.143 21.0681C155.589 21.1934 154.974 21.478 154.877 21.6941L154.876 21.6889ZM224.926 44.0865C228.433 45.4299 230.093 49.7689 228.826 54.4727C226.684 62.8261 218.037 66.0422 207.366 62.477L204.425 61.4911L205.271 59.6495C206.529 56.8408 211.824 49.9594 214.379 47.7316C218.332 44.3627 222.108 43.0242 224.921 44.0876L224.926 44.0865Z" fill="#2E2E2E"/>
<path d="M18.3195 78.1485C18.3068 78.5671 18.2639 79.2933 18.191 80.3271C18.134 81.3596 18.0933 82.2061 18.069 82.8665C17.996 84.8478 18.0136 86.4761 18.1217 87.7515C18.2297 89.0269 18.354 90.02 18.4946 90.7307C18.6497 91.424 18.8499 92.0815 19.0952 92.703C19.3393 93.3085 19.6601 93.7791 20.0579 94.1147C20.4716 94.449 20.9335 94.5945 21.4437 94.5513C22.1771 94.4891 22.789 94.0358 23.2794 93.1914C23.7858 92.3456 24.1458 91.2875 24.3592 90.0169C24.5714 88.7304 24.735 87.44 24.8501 86.1456C24.9811 84.8499 25.099 83.5875 25.2035 82.3582C25.3241 81.1277 25.4611 80.2811 25.6145 79.8185C26.0207 79.495 26.3354 79.3238 26.5586 79.3049C26.7818 79.286 26.9512 79.2957 27.0668 79.3341C27.2273 80.0913 27.4412 81.4782 27.7085 83.4948C27.9903 85.4941 28.2662 87.0444 28.5361 88.1455C28.822 89.2453 29.1415 90.1736 29.4947 90.9305C29.8638 91.686 30.3656 92.3019 31.0001 92.778C31.6332 93.2382 32.3324 93.4358 33.0977 93.371C33.8789 93.3048 34.4862 92.892 34.9196 92.1327C35.353 91.3734 35.6307 90.3864 35.7526 89.1718C35.9701 87.0017 35.9829 84.7847 35.7911 82.5208C35.5979 80.241 35.2559 78.4796 34.7652 77.2366C35.1395 76.9158 35.494 76.7412 35.8288 76.7129C36.1636 76.6845 36.4729 76.9232 36.7566 77.4291C37.0403 77.9349 37.2645 78.5904 37.429 79.3953C37.7287 80.8472 37.9292 82.171 38.0305 83.3667C38.1318 84.5624 38.1222 85.7756 38.0017 87.0062C37.8812 88.2367 37.6264 89.3984 37.2373 90.4912C36.8628 91.5666 36.2793 92.451 35.4871 93.1444C34.7094 93.8205 33.7705 94.2052 32.6705 94.2984C31.9357 94.3446 31.2592 94.2253 30.641 93.9405C30.0373 93.6384 29.5405 93.271 29.1506 92.8384C28.7593 92.3898 28.3878 91.7951 28.036 91.0541C27.5282 89.9892 27.0586 88.616 26.627 86.9344C26.156 89.3347 25.7272 91.0009 25.3405 91.9329C24.391 94.1811 22.9284 95.3969 20.9529 95.5804C19.6774 95.6885 18.6817 95.3072 17.9656 94.4366C17.3373 93.6548 16.888 92.5207 16.6175 91.0343C16.5156 90.4006 16.4302 89.6772 16.3613 88.8641C16.1357 86.2017 16.2784 82.7694 16.7894 78.5672C17.1836 78.2929 17.5003 78.1457 17.7395 78.1254C17.9945 78.1038 18.1879 78.1115 18.3195 78.1485ZM41.7781 75.5584C41.7932 75.9264 41.8197 76.3336 41.8575 76.78C41.8953 77.2264 41.9584 77.6868 42.0468 78.161C41.8452 78.435 41.5531 78.5882 41.1705 78.6206C40.6922 78.6612 40.4206 78.2988 40.3558 77.5335C40.3531 77.5017 40.3429 77.3821 40.3254 77.1748C40.3078 76.9676 40.2923 76.7842 40.2787 76.6248C40.2798 76.4481 40.2948 76.2461 40.3237 76.0188C40.4029 75.6268 40.6338 75.4145 41.0164 75.3821C41.3991 75.3496 41.6529 75.4084 41.7781 75.5584ZM41.2406 87.4061C40.9758 84.2813 40.9825 82.4662 41.2608 81.9609C41.3576 81.7761 41.4857 81.6769 41.6451 81.6634C41.8045 81.6499 42.075 81.7153 42.4566 81.8596C42.4917 83.2215 42.5768 84.6996 42.7119 86.2939C42.7119 86.2939 42.8771 88.0542 43.2076 91.5749C43.2495 92.0691 43.1676 92.4293 42.962 92.6555C42.7709 92.8644 42.5798 92.9769 42.3884 92.9931C42.2131 93.008 42.0257 92.9757 41.8263 92.8962C41.5709 90.8304 41.3757 89.0004 41.2406 87.4061ZM45.534 82.8754C44.8166 82.9362 44.3155 82.802 44.0307 82.4729C44.009 82.2178 44.0958 82.0097 44.2909 81.8487C44.5019 81.6863 44.7336 81.5783 44.986 81.5248C45.237 81.4554 45.6482 81.3804 46.2194 81.2999C46.2308 80.8654 46.2081 80.3133 46.1513 79.6437C46.1092 78.9568 46.0758 78.3735 46.0512 77.8939C45.9923 76.6304 46.1181 75.8409 46.4286 75.5256C46.5613 75.3859 46.7073 75.3093 46.8667 75.2958C47.0421 75.2809 47.1949 75.284 47.3252 75.3051C47.4703 76.4489 47.553 77.1404 47.5732 77.3795L47.7337 80.9788C47.767 80.9921 47.8553 80.9926 47.9988 80.9805L49.7146 80.7628C50.9581 80.6574 51.5961 80.7961 51.6285 81.1787C51.6744 81.7207 51.4783 82.0585 51.04 82.192C50.8368 82.2574 50.5917 82.3022 50.3047 82.3266C50.0337 82.3495 49.6723 82.348 49.2205 82.3221C48.7832 82.2789 48.469 82.2654 48.2777 82.2816C48.0864 82.2978 47.9595 82.3166 47.8971 82.3379C47.8884 82.8043 47.9037 83.2687 47.9429 83.731C47.9807 84.1774 48.0366 84.7427 48.1107 85.4269C48.1993 86.0938 48.3313 86.8935 48.5067 87.826C48.698 88.7572 48.9981 89.5507 49.4069 90.2065C49.8144 90.8464 50.2892 91.1434 50.8312 91.0974C51.1022 91.0745 51.4123 90.9438 51.7614 90.7055C52.1092 90.4512 52.3787 90.316 52.5701 90.2997C52.7773 90.2822 52.9567 90.3152 53.1083 90.3987C53.2745 90.4649 53.3623 90.5538 53.3718 90.6654C53.4002 91.0002 53.0851 91.356 52.4266 91.733C51.7826 92.0926 51.2215 92.2927 50.7433 92.3333C48.9895 92.4819 47.7569 90.9164 47.0455 87.6367C46.8369 86.691 46.602 85.057 46.341 82.7347C46.09 82.8042 45.821 82.851 45.534 82.8754ZM54.6541 87.2087L53.9614 76.4769C53.8911 75.6479 53.7953 75.0859 53.674 74.7911C53.9394 74.5117 54.367 74.347 54.9569 74.297C55.3406 75.9827 55.6459 78.1647 55.8729 80.8431C55.9404 81.6402 56.0254 83.4957 56.1278 86.4094C56.5353 82.3124 57.7036 80.1821 59.6327 80.0187C60.3182 79.9606 60.8754 80.2827 61.3043 80.985C61.7477 81.67 62.0611 82.5265 62.2446 83.5547C62.4281 84.5829 62.5956 85.6124 62.7472 86.6433C63.1174 89.1169 63.6692 90.3226 64.4026 90.2605C64.4185 90.2591 64.5659 90.1984 64.8448 90.0785C65.4663 89.8331 65.8209 89.7549 65.9088 89.8438C65.9236 90.0192 65.6954 90.2633 65.2242 90.5762C64.7516 90.8732 64.308 91.0392 63.8935 91.0744C63.192 91.1338 62.6195 90.821 62.1761 90.136C61.7473 89.4337 61.4411 88.5685 61.2576 87.5403C61.0901 86.5108 60.9392 85.4879 60.8049 84.4716C60.6852 83.438 60.5073 82.5699 60.2711 81.8673C60.0336 81.1488 59.7075 80.8071 59.293 80.8423C58.7829 80.8855 58.3598 81.4834 58.024 82.6358C57.7027 83.771 57.4792 85.0184 57.3535 86.3778C57.2279 87.7373 57.037 88.9899 56.7808 90.1356C56.5392 91.264 56.2431 91.8431 55.8923 91.8728C55.3343 91.9201 54.9216 90.3654 54.6541 87.2087ZM71.8826 73.9707L82.263 72.826C82.6616 72.7923 82.9772 72.8217 83.2098 72.9144C83.4411 72.9911 83.5629 73.1013 83.575 73.2447C83.5831 73.3404 83.56 73.4467 83.5057 73.5637C81.8901 76.4786 79.5846 80.1584 76.5892 84.6032C75.1638 86.7312 74.0547 88.4229 73.2619 89.6783C73.9196 89.6707 74.7347 89.6257 75.7072 89.5433L82.8673 88.7679C83.9195 88.6788 84.7911 88.637 85.4821 88.6427C85.4553 89.4639 84.7723 89.9312 83.4331 90.0447L74.4158 91.0738C72.2954 91.2535 71.2129 91.0803 71.1683 90.5542C71.1562 90.4107 71.2064 90.2459 71.3191 90.0597C72.3343 88.2074 74.0089 85.6087 76.3428 82.2637C78.6926 78.9173 80.4089 76.2428 81.4916 74.2402C77.1541 74.7844 73.7338 75.1626 71.2308 75.3747C70.5453 75.4328 70.1863 75.2705 70.1538 74.8879C70.1106 74.3777 70.6868 74.072 71.8826 73.9707ZM94.3651 81.8925L94.4786 84.6528C94.5961 86.0398 94.8346 86.9589 95.194 87.4102C95.4123 87.7129 95.6889 87.85 96.0237 87.8216C96.1193 87.8135 96.2528 87.7781 96.4242 87.7154C96.7508 87.5914 97.0339 87.6156 97.2733 87.788C97.209 88.3554 96.6746 88.6817 95.6702 88.7668C94.9847 88.8249 94.506 88.5765 94.2342 88.0214C94.0223 87.6058 93.8495 87.0826 93.7158 86.4516C93.5807 85.8047 93.4791 85.3637 93.411 85.1286C92.5422 87.1934 91.6398 88.4822 90.7038 88.995C90.2285 89.2601 89.664 89.4204 89.0103 89.4757C88.3567 89.5311 87.8201 89.2635 87.4008 88.6728C86.996 88.0648 86.7422 87.155 86.6396 85.9433C86.5369 84.7317 86.6288 83.4473 86.9152 82.0903C87.2003 80.7173 87.6869 79.544 88.3752 78.5704C89.0621 77.5809 89.8599 77.0476 90.7686 76.9706C92.076 76.8598 92.9908 77.3282 93.5131 78.3759C93.9582 79.2695 94.2422 80.4417 94.3651 81.8925ZM88.4413 81.6238C88.291 82.5036 88.1932 83.3388 88.1478 84.1295C88.101 84.9042 88.1033 85.5945 88.1547 86.2003C88.2047 86.7902 88.3675 87.2902 88.6431 87.7004C88.9347 88.1093 89.2797 88.2968 89.6783 88.263C90.5392 88.1901 91.2993 87.3067 91.9587 85.613C92.618 83.9193 92.8882 82.3709 92.7693 80.9679C92.6923 80.0592 92.3897 79.3302 91.8614 78.7808C91.5101 78.4252 91.0714 78.2697 90.5453 78.3143C90.0351 78.3575 89.5905 78.7003 89.2114 79.3426C88.8469 79.9676 88.5901 80.728 88.4413 81.6238ZM97.8586 83.5474L97.1659 72.8156C97.0956 71.9865 96.9998 71.4246 96.8785 71.1298C97.1439 70.8504 97.5715 70.6857 98.1614 70.6357C98.5451 72.3213 98.8504 74.5034 99.0774 77.1818C99.145 77.9789 99.2299 79.8344 99.3323 82.7481C99.7398 78.6511 100.908 76.5208 102.837 76.3573C103.523 76.2992 104.08 76.6213 104.509 77.3236C104.952 78.0086 105.266 78.8652 105.449 79.8934C105.633 80.9216 105.8 81.9511 105.952 82.982C106.322 85.4556 106.874 86.6613 107.607 86.5991C107.623 86.5978 107.77 86.5371 108.049 86.4171C108.671 86.1718 109.025 86.0936 109.113 86.1825C109.128 86.3578 108.9 86.602 108.429 86.9149C107.956 87.2119 107.513 87.3779 107.098 87.413C106.397 87.4725 105.824 87.1597 105.381 86.4747C104.952 85.7724 104.646 84.9072 104.462 83.879C104.295 82.8495 104.144 81.8265 104.009 80.8103C103.89 79.7767 103.712 78.9086 103.476 78.206C103.238 77.4875 102.912 77.1458 102.498 77.181C101.987 77.2242 101.564 77.822 101.228 78.9745C100.907 80.1097 100.684 81.357 100.558 82.7165C100.432 84.076 100.241 85.3286 99.9853 86.4743C99.7437 87.6027 99.4476 88.1818 99.0968 88.2115C98.5388 88.2588 98.1261 86.7041 97.8586 83.5474ZM116.785 79.9926L116.898 82.7528C117.016 84.1399 117.254 85.059 117.614 85.5103C117.832 85.8129 118.109 85.9501 118.443 85.9217C118.539 85.9136 118.672 85.8782 118.844 85.8155C119.17 85.6915 119.454 85.7157 119.693 85.8881C119.629 86.4555 119.094 86.7818 118.09 86.8669C117.404 86.925 116.926 86.6765 116.654 86.1215C116.442 85.7059 116.269 85.1826 116.135 84.5517C116 83.9048 115.899 83.4638 115.831 83.2287C114.962 85.2934 114.059 86.5822 113.123 87.0951C112.648 87.3602 112.084 87.5204 111.43 87.5758C110.776 87.6312 110.24 87.3636 109.82 86.7729C109.416 86.1649 109.162 85.255 109.059 84.0434C108.957 82.8317 109.048 81.5474 109.335 80.1904C109.62 78.8174 110.107 77.6441 110.795 76.6705C111.482 75.681 112.28 75.1477 113.188 75.0707C114.496 74.9599 115.41 75.4283 115.933 76.476C116.378 77.3696 116.662 78.5418 116.785 79.9926ZM110.861 79.7238C110.711 80.6037 110.613 81.4389 110.567 82.2296C110.521 83.0043 110.523 83.6945 110.574 84.3004C110.624 84.8903 110.787 85.3903 111.063 85.8005C111.354 86.2093 111.699 86.3969 112.098 86.3631C112.959 86.2901 113.719 85.4068 114.378 83.7131C115.038 82.0193 115.308 80.471 115.189 79.068C115.112 78.1593 114.809 77.4302 114.281 76.8809C113.93 76.5253 113.491 76.3698 112.965 76.4143C112.455 76.4576 112.01 76.8003 111.631 77.4426C111.266 78.0677 111.01 78.8281 110.861 79.7238ZM122.699 84.0677L122.886 85.4247C122.916 85.7755 122.834 86.0314 122.638 86.1924C122.458 86.3362 122.264 86.4168 122.057 86.4344C121.865 86.4506 121.663 86.4356 121.451 86.3894C120.943 84.5698 120.477 82.289 120.052 79.5471C119.643 76.8038 119.407 75.2502 119.344 74.8862C119.564 74.6428 119.802 74.5102 120.057 74.4886C120.328 74.4656 120.57 74.4773 120.782 74.5235C120.885 74.9804 121.02 75.9967 121.185 77.5723C121.351 79.148 121.475 80.1331 121.556 80.5276C121.666 79.1695 121.958 77.8842 122.434 76.6717C122.697 75.991 123.068 75.4378 123.546 75.0119C124.038 74.5687 124.579 74.3222 125.169 74.2722C125.775 74.2208 126.348 74.4452 126.888 74.9454C127.443 75.4283 127.738 75.885 127.775 76.3154C127.788 76.4749 127.703 76.6105 127.52 76.7224C127.336 76.8183 127.124 76.8764 126.885 76.8967C126.661 76.9156 126.479 76.8428 126.336 76.6782C126.194 76.5136 126.09 76.3297 126.025 76.1265C125.958 75.9074 125.837 75.7169 125.663 75.555C125.489 75.3932 125.266 75.3237 124.995 75.3467C124.278 75.4075 123.719 76.1052 123.318 77.4398C122.7 79.4351 122.494 81.6444 122.699 84.0677ZM136.776 78.2985L136.889 81.0587C137.007 82.4458 137.245 83.3649 137.604 83.8162C137.823 84.1188 138.099 84.256 138.434 84.2276C138.53 84.2195 138.663 84.1841 138.835 84.1214C139.161 83.9974 139.444 84.0216 139.684 84.194C139.619 84.7614 139.085 85.0877 138.081 85.1728C137.395 85.2309 136.916 84.9824 136.645 84.4274C136.433 84.0118 136.26 83.4885 136.126 82.8576C135.991 82.2107 135.89 81.7697 135.821 81.5346C134.953 83.5993 134.05 84.8881 133.114 85.401C132.639 85.6661 132.074 85.8263 131.421 85.8817C130.767 85.9371 130.231 85.6695 129.811 85.0788C129.406 84.4708 129.153 83.5609 129.05 82.3493C128.947 81.1376 129.039 79.8533 129.326 78.4963C129.611 77.1233 130.097 75.95 130.786 74.9764C131.473 73.9869 132.27 73.4536 133.179 73.3766C134.486 73.2658 135.401 73.7342 135.924 74.7819C136.369 75.6755 136.653 76.8477 136.776 78.2985ZM130.852 78.0297C130.701 78.9096 130.604 79.7448 130.558 80.5355C130.512 81.3102 130.514 82.0004 130.565 82.6063C130.615 83.1962 130.778 83.6962 131.054 84.1064C131.345 84.5152 131.69 84.7028 132.089 84.669C132.95 84.596 133.71 83.7127 134.369 82.019C135.028 80.3252 135.299 78.7769 135.18 77.3739C135.103 76.4652 134.8 75.7361 134.272 75.1868C133.921 74.8312 133.482 74.6756 132.956 74.7202C132.446 74.7635 132.001 75.1062 131.622 75.7485C131.257 76.3736 131.001 77.134 130.852 78.0297ZM160.326 83.1191C160.101 83.4914 159.749 83.6979 159.271 83.7384C159.143 83.7492 159.014 83.7441 158.884 83.723C158.466 82.9556 158.107 81.8539 157.809 80.4179C157.525 78.9647 157.324 78.0103 157.205 77.5547C155.462 77.6382 153.721 77.7536 151.984 77.9009C150.246 78.0481 148.698 78.2516 147.339 78.5113C147.251 79.1771 147.174 80.1711 147.11 81.4933C147.06 82.7981 147.014 83.6772 146.972 84.1303C146.437 84.6413 145.924 84.749 145.434 84.4534C145.449 84.0667 145.469 83.4548 145.495 82.6176C145.52 81.7805 145.54 81.0723 145.556 80.4929C145.585 79.8963 145.634 79.1455 145.702 78.2405C145.77 77.3356 145.84 76.5588 145.914 75.9103C146.002 75.2445 146.132 74.5029 146.303 73.6855C146.474 72.8521 146.662 72.1376 146.868 71.5421C147.075 70.9465 147.336 70.3383 147.653 69.7173C147.986 69.095 148.352 68.5823 148.751 68.1791C149.671 67.2822 150.712 66.7845 151.876 66.6859C153.04 66.5872 154.042 66.9519 154.883 67.7799C155.74 68.6065 156.429 69.7283 156.951 71.1453C157.472 72.5623 157.915 73.9941 158.278 75.4405C158.642 76.887 159 78.3661 159.353 79.8777C159.706 81.3893 160.03 82.4697 160.326 83.1191ZM154.753 70.2236C154.384 69.468 153.942 68.8953 153.427 68.5054C152.911 68.0995 152.303 67.9263 151.601 67.9858C150.9 68.0452 150.251 68.4454 149.655 69.1863C149.06 69.9273 148.614 70.8241 148.318 71.8769C147.793 73.8322 147.511 75.6224 147.472 77.2475C149.052 76.937 150.647 76.7135 152.257 76.5771C153.867 76.4406 155.426 76.3567 156.932 76.3254C156.848 76.0916 156.681 75.5358 156.43 74.6578C156.179 73.7799 155.929 73.0142 155.681 72.3609C155.448 71.6902 155.138 70.9777 154.753 70.2236ZM163.605 66.0051C164.056 73.2248 164.445 78.86 164.772 82.9109C164.555 83.1862 164.35 83.332 164.159 83.3482C163.984 83.3631 163.829 83.336 163.695 83.2671C163.308 83.0591 163.087 82.6282 163.031 81.9745C162.413 74.3033 162.089 69.8107 162.058 68.4966C162.027 67.1825 162.082 66.4151 162.224 66.1944C162.366 65.9736 162.548 65.8538 162.771 65.8348C162.995 65.8159 163.272 65.8727 163.605 66.0051ZM20.0647 120.344C20.0599 120.665 20.0622 120.882 20.0716 120.994C20.1527 121.95 20.5025 122.667 21.121 123.145C21.7555 123.621 22.4713 123.825 23.2684 123.758C24.0656 123.69 24.7018 123.524 25.1771 123.259C25.6684 122.992 26.0148 122.722 26.2164 122.448C26.7295 121.682 27.2252 121.279 27.7035 121.238C27.8789 121.223 28.0902 121.253 28.3375 121.329C28.2442 122.124 27.6992 122.892 26.7024 123.635C25.7201 124.361 24.4398 124.79 22.8615 124.924C21.7455 125.019 20.7512 124.75 19.8787 124.117C19.0207 123.467 18.5398 122.528 18.4357 121.301C18.3317 120.073 18.4702 118.865 18.8512 117.677C19.2468 116.471 19.8645 115.423 20.7044 114.533C21.5588 113.626 22.4563 113.132 23.3969 113.052C24.3535 112.971 25.1357 113.106 25.7434 113.456C26.3657 113.788 26.7086 114.329 26.7721 115.079C26.8896 116.466 26.3651 117.666 25.1986 118.68C24.0467 119.677 22.7772 120.234 21.3902 120.352C21.0235 120.383 20.5817 120.38 20.0647 120.344ZM21.8153 119.401C22.5647 119.337 23.214 119.041 23.7633 118.513C24.3127 117.985 24.6847 117.447 24.8792 116.901C25.0897 116.353 25.1767 115.864 25.1403 115.434C25.1038 115.003 24.9046 114.643 24.5428 114.352C24.1796 114.046 23.7748 113.912 23.3284 113.949C22.5313 114.017 21.8366 114.63 21.2442 115.788C20.6679 116.945 20.2862 118.125 20.0992 119.329C20.8128 119.413 21.3849 119.437 21.8153 119.401ZM28.461 112.936C28.5788 112.621 28.8768 112.444 29.3551 112.403C29.5624 112.385 29.7418 112.418 29.8934 112.502C30.4438 113.692 30.987 114.89 31.5228 116.097C32.5291 118.308 33.4391 120.045 34.2527 121.309C34.4227 119.336 34.9022 117.32 35.6912 115.262C36.4962 113.203 37.2972 112.139 38.0944 112.072C38.3335 112.052 38.5774 112.087 38.826 112.178C37.1966 114.741 36.1515 118.041 35.6908 122.079C35.6097 123.017 35.4789 123.558 35.2984 123.701C35.1033 123.863 34.8942 123.953 34.671 123.971C34.4478 123.99 34.2684 123.957 34.1327 123.873C34.013 123.786 33.9172 123.698 33.8453 123.608C33.7894 123.516 33.7041 123.363 33.5896 123.148C33.4909 122.931 33.4143 122.785 33.3597 122.71C31.4755 119.802 29.8426 116.545 28.461 112.936ZM41.6436 118.515C41.6388 118.837 41.6411 119.053 41.6505 119.165C41.7316 120.121 42.0814 120.838 42.6999 121.316C43.3344 121.792 44.0502 121.996 44.8473 121.929C45.6445 121.861 46.2807 121.695 46.756 121.43C47.2473 121.163 47.5937 120.893 47.7953 120.619C48.3084 119.853 48.8041 119.45 49.2824 119.409C49.4578 119.394 49.6691 119.425 49.9164 119.5C49.8231 120.295 49.2781 121.064 48.2813 121.806C47.299 122.532 46.0187 122.962 44.4404 123.095C43.3244 123.19 42.3301 122.921 41.4576 122.288C40.5997 121.638 40.1187 120.7 40.0146 119.472C39.9106 118.245 40.0491 117.037 40.4301 115.848C40.8257 114.642 41.4434 113.594 42.2833 112.704C43.1377 111.797 44.0352 111.303 44.9758 111.224C45.9324 111.143 46.7146 111.277 47.3223 111.627C47.9446 111.96 48.2875 112.501 48.351 113.25C48.4685 114.637 47.944 115.838 46.7775 116.852C45.6256 117.849 44.3561 118.406 42.9691 118.523C42.6024 118.554 42.1606 118.552 41.6436 118.515ZM43.3943 117.572C44.1436 117.508 44.7929 117.213 45.3423 116.684C45.8916 116.156 46.2636 115.619 46.4581 115.072C46.6686 114.525 46.7556 114.036 46.7192 113.605C46.6827 113.175 46.4835 112.814 46.1217 112.524C45.7585 112.217 45.3537 112.083 44.9073 112.121C44.1102 112.188 43.4155 112.801 42.8232 113.959C42.2468 115.116 41.8651 116.297 41.6781 117.501C42.3917 117.585 42.9638 117.608 43.3943 117.572ZM54.2836 119.973L54.4709 121.33C54.5006 121.681 54.4179 121.937 54.2228 122.098C54.0423 122.242 53.8485 122.322 53.6412 122.34C53.4499 122.356 53.2479 122.341 53.0352 122.295C52.5278 120.475 52.0615 118.194 51.6365 115.452C51.2274 112.709 50.9913 111.156 50.9284 110.792C51.1486 110.548 51.3862 110.416 51.6413 110.394C51.9124 110.371 52.1542 110.383 52.3669 110.429C52.4698 110.886 52.6041 111.902 52.7698 113.478C52.9354 115.053 53.059 116.038 53.1406 116.433C53.2503 115.075 53.5429 113.79 54.0182 112.577C54.2816 111.896 54.6522 111.343 55.13 110.917C55.6223 110.474 56.1634 110.227 56.7533 110.178C57.3591 110.126 57.9321 110.351 58.4723 110.851C59.0271 111.334 59.3227 111.79 59.3592 112.221C59.3727 112.38 59.2878 112.516 59.1046 112.628C58.9201 112.724 58.7082 112.782 58.4691 112.802C58.2459 112.821 58.0631 112.748 57.9207 112.584C57.7782 112.419 57.6744 112.235 57.609 112.032C57.5422 111.813 57.4217 111.622 57.2474 111.46C57.0731 111.299 56.8505 111.229 56.5794 111.252C55.862 111.313 55.3029 112.011 54.9022 113.345C54.2845 115.34 54.0783 117.55 54.2836 119.973ZM66.5313 111.179C66.4341 110.032 66.7521 109.427 67.4855 109.364C67.629 109.352 67.7738 109.356 67.92 109.376C67.9362 109.567 67.9801 110.085 68.0517 110.93C68.1233 111.775 68.3781 113.456 68.8162 115.972C69.2542 118.488 69.5266 120.375 69.6333 121.635C69.8035 123.644 69.5703 125.06 68.9337 125.885C68.2971 126.71 67.1338 127.194 65.4438 127.337C63.7698 127.479 62.1455 127.071 60.571 126.112C60.8282 125.737 61.188 125.53 61.6504 125.491C61.8271 125.492 62.1162 125.588 62.5178 125.778C63.7065 126.352 64.6755 126.607 65.4248 126.544C66.5408 126.449 67.3002 126.032 67.7031 125.291C68.106 124.55 68.2372 123.351 68.0967 121.693C68.0629 121.294 67.9015 119.863 67.6123 117.398C67.6004 117.448 67.5622 117.66 67.4976 118.034C67.4317 118.393 67.3795 118.63 67.3412 118.746C67.3028 118.862 67.2327 119.076 67.1308 119.39C67.0449 119.702 66.9435 119.928 66.8268 120.066C66.7101 120.205 66.5555 120.37 66.3631 120.563C66.0394 120.912 65.6065 121.109 65.0644 121.155C64.5383 121.199 64.1098 121.164 63.7788 121.047C63.4477 120.931 63.1578 120.73 62.9089 120.446C62.676 120.161 62.4577 119.858 62.2539 119.538C62.0661 119.217 61.9028 118.805 61.7639 118.303C61.6236 117.785 61.5034 117.314 61.4031 116.889C61.3188 116.462 61.2344 115.94 61.1498 115.321C61.0812 114.7 61.0213 114.183 60.9703 113.77C60.9351 113.356 60.8905 112.83 60.8365 112.192L60.7149 110.757C60.8514 110.473 61.1269 110.313 61.5414 110.278C62.1153 110.229 62.4198 110.412 62.455 110.826L62.5081 113.158C62.6796 115.183 63.0428 116.91 63.5976 118.341C64.1523 119.771 64.6609 120.467 65.1232 120.427C65.474 120.398 65.7686 120.18 66.0072 119.774C66.2458 119.369 66.4078 118.817 66.4932 118.119C66.5773 117.406 66.6408 116.734 66.6837 116.104C66.7267 115.474 66.729 114.743 66.6906 113.912C66.6317 112.648 66.5786 111.737 66.5313 111.179ZM72.2183 110.818C72.926 109.505 74.0451 108.784 75.5756 108.655C77.1062 108.525 78.3785 109.043 79.3926 110.21C80.4227 111.375 81.0053 112.755 81.1404 114.349C81.2741 115.927 80.8854 117.309 79.9742 118.494C79.0631 119.68 77.8342 120.338 76.2878 120.469C74.7413 120.6 73.5809 120.265 72.8064 119.463C72.0306 118.646 71.5759 117.448 71.4421 115.869C71.2678 113.813 71.5266 112.129 72.2183 110.818ZM73.378 111.996C73.2234 112.636 73.1167 113.271 73.0577 113.902C73.0148 114.532 73.0163 115.118 73.0622 115.66C73.1068 116.186 73.1878 116.669 73.3054 117.109C73.4216 117.532 73.5936 117.951 73.8214 118.366C74.0478 118.764 74.3632 119.074 74.7674 119.297C75.1703 119.504 75.6348 119.585 76.1609 119.54C77.2291 119.45 78.0847 118.936 78.7279 117.998C79.3869 117.059 79.6638 115.968 79.5584 114.724C79.453 113.481 79.0162 112.305 78.248 111.198C77.4943 110.074 76.6392 109.552 75.6826 109.633C75.1087 109.682 74.6234 109.924 74.2267 110.359C73.83 110.794 73.5471 111.34 73.378 111.996ZM93.7419 118.315C93.4806 118.642 93.1666 118.822 92.7999 118.853C92.1144 118.911 91.5731 118.587 91.1762 117.882C90.7792 117.177 90.5043 116.301 90.3513 115.255C90.2143 114.206 90.0933 113.157 89.9882 112.106C89.8831 111.055 89.7197 110.17 89.4981 109.45C89.2925 108.729 88.9824 108.386 88.5679 108.421C88.0099 108.468 87.5742 109.011 87.2607 110.049C86.9632 111.086 86.7868 112.225 86.7314 113.466C86.5754 116.931 86.3078 118.889 85.9284 119.339C85.6536 119.506 85.4126 119.599 85.2053 119.617C84.998 119.634 84.8206 119.625 84.6731 119.59C84.214 118.151 83.7846 115.642 83.385 112.063C83.2018 110.281 83.072 109.127 82.9955 108.604C83.3114 108.352 83.5889 108.216 83.828 108.196C84.0672 108.176 84.2605 108.184 84.408 108.219C84.5459 108.898 84.7046 110.298 84.8843 112.418C85.0799 114.537 85.1992 115.755 85.2422 116.073C85.2935 115.731 85.3433 115.181 85.3914 114.422C85.4554 113.662 85.515 113.039 85.5701 112.553C85.6239 112.05 85.7267 111.464 85.8786 110.792C86.0304 110.121 86.2177 109.583 86.4404 109.179C86.6617 108.759 86.984 108.394 87.4075 108.086C87.8295 107.761 88.3196 107.575 88.8776 107.527C89.6269 107.464 90.198 107.761 90.5909 108.418C90.9984 109.058 91.2606 109.879 91.3776 110.88C91.4946 111.882 91.5971 112.901 91.6849 113.937C91.7886 114.972 91.9966 115.91 92.3087 116.751C92.6367 117.59 93.1144 118.111 93.7419 118.315ZM96.1514 113.896C96.1465 114.218 96.1488 114.434 96.1583 114.546C96.2393 115.502 96.5891 116.219 97.2077 116.697C97.8421 117.173 98.558 117.377 99.3551 117.31C100.152 117.242 100.788 117.076 101.264 116.811C101.755 116.544 102.101 116.274 102.303 116C102.816 115.234 103.312 114.831 103.79 114.79C103.966 114.775 104.177 114.806 104.424 114.881C104.331 115.676 103.786 116.444 102.789 117.187C101.807 117.913 100.526 118.342 98.9481 118.476C97.8321 118.571 96.8379 118.302 95.9653 117.669C95.1074 117.019 94.6264 116.081 94.5224 114.853C94.4184 113.625 94.5568 112.417 94.9379 111.229C95.3335 110.023 95.9512 108.975 96.791 108.085C97.6454 107.178 98.543 106.684 99.4836 106.605C100.44 106.523 101.222 106.658 101.83 107.008C102.452 107.34 102.795 107.881 102.859 108.631C102.976 110.018 102.452 111.218 101.285 112.233C100.133 113.229 98.8638 113.787 97.4768 113.904C97.1101 113.935 96.6683 113.932 96.1514 113.896ZM97.902 112.953C98.6513 112.889 99.3007 112.593 99.85 112.065C100.399 111.537 100.771 111 100.966 110.453C101.176 109.905 101.263 109.416 101.227 108.986C101.19 108.555 100.991 108.195 100.629 107.904C100.266 107.598 99.8615 107.464 99.4151 107.502C98.618 107.569 97.9232 108.182 97.3309 109.34C96.7545 110.497 96.3728 111.677 96.1859 112.881C96.8995 112.965 97.4715 112.989 97.902 112.953ZM119.316 107.79C119.039 108.119 118.749 108.296 118.446 108.321C118.143 108.347 117.885 108.241 117.672 108.002C117.474 107.745 117.306 107.471 117.169 107.177C117.03 106.868 116.799 106.598 116.474 106.369C116.164 106.122 115.786 106.018 115.34 106.056C114.723 106.172 114.195 106.667 113.755 107.539C113.314 108.395 113.016 109.328 112.86 110.336C112.705 111.345 112.664 112.288 112.739 113.165C112.812 114.026 113.114 114.755 113.647 115.352C114.194 115.932 114.882 116.187 115.711 116.116C116.667 116.035 117.404 115.636 117.921 114.917C118.136 114.61 118.335 114.304 118.518 114C118.971 113.287 119.405 112.913 119.82 112.878C119.963 112.866 120.174 112.888 120.452 112.945C120.502 113.535 120.026 114.362 119.024 115.426C118.037 116.473 116.914 117.05 115.654 117.157C114.395 117.264 113.365 116.949 112.564 116.214C111.777 115.462 111.33 114.448 111.222 113.173C111.083 111.531 111.342 109.855 112 108.145C112.331 107.314 112.818 106.615 113.46 106.046C114.101 105.462 114.844 105.134 115.689 105.063C116.534 104.991 117.236 105.221 117.795 105.751C118.368 106.265 118.875 106.944 119.316 107.79ZM129.687 109.007L129.801 111.767C129.918 113.154 130.157 114.073 130.516 114.524C130.734 114.827 131.011 114.964 131.346 114.936C131.441 114.928 131.575 114.892 131.746 114.83C132.073 114.706 132.356 114.73 132.595 114.902C132.531 115.47 131.997 115.796 130.992 115.881C130.307 115.939 129.828 115.691 129.556 115.136C129.344 114.72 129.171 114.197 129.038 113.566C128.903 112.919 128.801 112.478 128.733 112.243C127.864 114.308 126.962 115.596 126.026 116.109C125.55 116.374 124.986 116.535 124.332 116.59C123.679 116.645 123.142 116.378 122.723 115.787C122.318 115.179 122.064 114.269 121.962 113.058C121.859 111.846 121.951 110.562 122.237 109.204C122.522 107.832 123.009 106.658 123.697 105.685C124.384 104.695 125.182 104.162 126.091 104.085C127.398 103.974 128.313 104.442 128.835 105.49C129.28 106.384 129.564 107.556 129.687 109.007ZM123.763 108.738C123.613 109.618 123.515 110.453 123.47 111.244C123.423 112.018 123.425 112.709 123.477 113.315C123.527 113.904 123.689 114.404 123.965 114.815C124.257 115.223 124.602 115.411 125 115.377C125.861 115.304 126.621 114.421 127.281 112.727C127.94 111.033 128.21 109.485 128.091 108.082C128.014 107.173 127.712 106.444 127.183 105.895C126.832 105.539 126.393 105.384 125.867 105.428C125.357 105.472 124.912 105.814 124.533 106.457C124.169 107.082 123.912 107.842 123.763 108.738ZM143.229 114.122C142.967 114.449 142.653 114.628 142.287 114.659C141.601 114.717 141.06 114.394 140.663 113.689C140.266 112.984 139.991 112.108 139.838 111.061C139.701 110.013 139.58 108.963 139.475 107.912C139.37 106.861 139.206 105.976 138.985 105.256C138.779 104.535 138.469 104.192 138.055 104.227C137.497 104.274 137.061 104.817 136.747 105.855C136.45 106.892 136.273 108.031 136.218 109.272C136.062 112.738 135.794 114.695 135.415 115.145C135.14 115.313 134.899 115.405 134.692 115.423C134.485 115.441 134.307 115.432 134.16 115.396C133.701 113.957 133.271 111.449 132.872 107.87C132.688 106.087 132.559 104.934 132.482 104.41C132.798 104.159 133.076 104.023 133.315 104.003C133.554 103.982 133.747 103.99 133.895 104.026C134.033 104.704 134.191 106.104 134.371 108.224C134.567 110.343 134.686 111.562 134.729 111.879C134.78 111.538 134.83 110.988 134.878 110.229C134.942 109.469 135.002 108.845 135.057 108.359C135.111 107.857 135.213 107.27 135.365 106.599C135.517 105.927 135.704 105.39 135.927 104.985C136.148 104.565 136.471 104.201 136.894 103.892C137.316 103.567 137.806 103.381 138.364 103.334C139.114 103.27 139.685 103.567 140.078 104.224C140.485 104.864 140.747 105.685 140.864 106.687C140.981 107.688 141.084 108.707 141.172 109.744C141.275 110.779 141.483 111.716 141.795 112.557C142.123 113.396 142.601 113.918 143.229 114.122ZM153.396 101.891C154.847 101.768 155.901 102.273 156.559 103.406C156.915 104.002 157.212 104.571 157.451 105.112C157.689 105.654 157.882 106.409 158.028 107.376C158.249 108.85 158.44 110.536 158.601 112.433C158.76 114.315 158.433 115.852 157.619 117.045C156.822 118.252 155.555 118.93 153.817 119.077C152.095 119.223 150.613 118.787 149.371 117.768C149.662 117.422 149.992 117.234 150.358 117.202C150.741 117.17 151.273 117.286 151.953 117.549C152.651 117.827 153.375 117.934 154.124 117.871C154.874 117.807 155.48 117.579 155.945 117.187C156.411 116.81 156.737 116.301 156.923 115.659C157.229 114.525 157.313 113.153 157.177 111.543C157.156 111.303 157.058 110.421 156.88 108.894C156.56 110.238 156.038 111.374 155.314 112.302C154.589 113.215 153.724 113.714 152.719 113.799C151.715 113.884 150.936 113.5 150.382 112.648C149.842 111.779 149.524 110.77 149.427 109.622C149.33 108.474 149.394 107.345 149.621 106.234C149.847 105.106 150.286 104.122 150.937 103.28C151.588 102.438 152.408 101.975 153.396 101.891ZM151.169 105.741C151.022 106.46 150.926 107.135 150.883 107.764C150.84 108.394 150.846 109.028 150.9 109.666C150.953 110.288 151.139 110.97 151.459 111.714C151.795 112.456 152.218 112.806 152.728 112.763C153.732 112.677 154.562 111.852 155.216 110.288C155.869 108.707 156.13 107.151 156.001 105.621C155.956 105.095 155.659 104.526 155.109 103.914C154.574 103.285 153.94 103.001 153.207 103.063C152.696 103.107 152.262 103.384 151.904 103.896C151.562 104.407 151.317 105.022 151.169 105.741ZM162.173 108.301C162.168 108.623 162.17 108.839 162.179 108.951C162.261 109.907 162.61 110.624 163.229 111.102C163.863 111.578 164.579 111.782 165.376 111.715C166.173 111.647 166.81 111.481 167.285 111.216C167.776 110.949 168.123 110.679 168.324 110.405C168.837 109.639 169.333 109.236 169.811 109.195C169.987 109.18 170.198 109.211 170.445 109.286C170.352 110.081 169.807 110.85 168.81 111.592C167.828 112.318 166.548 112.748 164.969 112.881C163.853 112.976 162.859 112.707 161.987 112.074C161.129 111.424 160.648 110.486 160.544 109.258C160.44 108.03 160.578 106.822 160.959 105.634C161.355 104.428 161.972 103.38 162.812 102.49C163.667 101.583 164.564 101.089 165.505 101.01C166.461 100.929 167.243 101.063 167.851 101.413C168.474 101.746 168.816 102.287 168.88 103.036C168.997 104.423 168.473 105.623 167.306 106.638C166.154 107.634 164.885 108.192 163.498 108.309C163.131 108.34 162.689 108.338 162.173 108.301ZM163.923 107.358C164.672 107.294 165.322 106.998 165.871 106.47C166.421 105.942 166.792 105.405 166.987 104.858C167.198 104.311 167.285 103.821 167.248 103.391C167.212 102.96 167.012 102.6 166.651 102.31C166.287 102.003 165.883 101.869 165.436 101.907C164.639 101.974 163.944 102.587 163.352 103.745C162.776 104.902 162.394 106.082 162.207 107.287C162.921 107.371 163.493 107.394 163.923 107.358ZM171.842 102.279C171.125 102.34 170.624 102.206 170.339 101.877C170.317 101.621 170.404 101.413 170.599 101.252C170.81 101.09 171.042 100.982 171.294 100.928C171.545 100.859 171.957 100.784 172.528 100.704C172.539 100.269 172.516 99.717 172.46 99.0474C172.418 98.3605 172.384 97.7772 172.36 97.2976C172.301 96.034 172.426 95.2446 172.737 94.9292C172.87 94.7895 173.016 94.7129 173.175 94.6994C173.35 94.6846 173.503 94.6877 173.633 94.7087C173.779 95.8526 173.861 96.5441 173.882 96.7832L174.042 100.383C174.075 100.396 174.164 100.396 174.307 100.384L176.023 100.166C177.266 100.061 177.904 100.2 177.937 100.582C177.983 101.124 177.787 101.462 177.348 101.596C177.145 101.661 176.9 101.706 176.613 101.73C176.342 101.753 175.981 101.752 175.529 101.726C175.092 101.683 174.777 101.669 174.586 101.685C174.395 101.701 174.268 101.72 174.205 101.742C174.197 102.208 174.212 102.672 174.251 103.135C174.289 103.581 174.345 104.146 174.419 104.831C174.508 105.497 174.64 106.297 174.815 107.23C175.006 108.161 175.306 108.954 175.715 109.61C176.123 110.25 176.597 110.547 177.14 110.501C177.411 110.478 177.721 110.347 178.07 110.109C178.418 109.855 178.687 109.72 178.878 109.703C179.086 109.686 179.265 109.719 179.417 109.802C179.583 109.869 179.671 109.957 179.68 110.069C179.709 110.404 179.393 110.76 178.735 111.137C178.091 111.496 177.53 111.696 177.052 111.737C175.298 111.886 174.065 110.32 173.354 107.04C173.145 106.095 172.91 104.461 172.649 102.138C172.398 102.208 172.129 102.255 171.842 102.279Z" fill="#2E2E2E"/>
</svg>
