<svg width="344" height="169" viewBox="0 0 344 169" fill="none" xmlns="http://www.w3.org/2000/svg">
<path fill-rule="evenodd" clip-rule="evenodd" d="M246.822 16.2468C246.202 17.166 247.41 19.2791 251.376 24.3292C260.76 36.0972 272.661 47.1453 284.26 54.7069L289.528 58.1964L287.634 62.9581C284.041 72.2966 282.126 84.0801 282.238 95.9956C282.294 105.727 284.949 117.257 288.27 122.258C288.57 122.726 286.883 121.938 284.529 120.571C280.311 118.067 278.691 117.605 277.004 118.327C274.956 119.179 276.306 120.627 283.936 125.921C288.155 128.863 292.486 132.272 293.733 133.695C295.026 135.107 296.401 136.452 296.834 136.646C297.996 137.26 300.049 136.65 300.499 135.623C300.729 135.133 300.398 131.945 299.625 127.878C298.215 119.914 298.164 117.101 299.281 109.977C299.761 107.142 300.039 104.493 299.944 104.076C299.39 101.621 295.38 106.958 294.377 111.572C293.992 113.315 293.687 116.062 293.72 117.715C293.762 119.41 293.638 120.802 293.453 120.843C293.314 120.875 292.465 119.703 291.635 118.186C289.254 113.898 287.355 104.632 287.322 96.946C287.272 88.9663 288.028 81.5348 289.504 75.1146C290.721 69.7216 293.739 60.8592 294.434 60.7022C294.619 60.6603 296.316 61.0561 298.229 61.549C300.096 62.0524 302.607 62.605 303.761 62.7337C313.925 63.9432 321.991 59.1017 324.381 50.4733C325.088 47.7817 325.14 46.5039 324.675 43.5845C323.943 39.27 322.858 37.2699 320.136 35.3528C316.314 32.6618 310.603 33.2705 305.294 36.9533C301.805 39.3973 298.643 42.887 294.827 48.6241L291.445 53.722L287.711 51.2058C278.899 45.2056 267.816 35.19 257.77 24.1559C250.714 16.4443 249.484 15.3101 248.094 15.6241C247.538 15.7497 246.921 16.0353 246.823 16.252L246.822 16.2468ZM317.092 38.7133C320.611 40.0609 322.276 44.4133 321.005 49.1316C318.856 57.5107 310.181 60.7367 299.477 57.1605L296.527 56.1716L297.375 54.3242C298.638 51.5069 303.95 44.6043 306.513 42.3697C310.478 38.9904 314.265 37.6478 317.087 38.7145L317.092 38.7133Z" fill="#2E2E2E"/>
<path d="M8.73386 81.8111L12.4258 81.6247C13.6548 81.5387 14.5107 81.6231 14.9936 81.878C14.9768 82.3283 14.8297 82.6353 14.5524 82.7991C14.2751 82.9628 13.8651 83.0637 13.3224 83.1017L8.14611 83.392C6.83731 83.4836 5.73878 83.6006 4.85052 83.743C4.7371 84.6492 4.73866 85.9402 4.8552 87.6162L4.95406 88.6919C4.98625 89.1548 5.01267 89.6501 5.03334 90.178C5.77642 90.2543 6.73851 90.251 7.91962 90.1683L10.767 89.9449C11.8523 89.8689 12.4787 89.8812 12.6461 89.9818C12.8134 90.0823 12.9016 90.1964 12.9105 90.3241C12.9526 90.9307 12.1996 91.2881 10.6514 91.3965L5.20505 91.6095C5.21573 91.9937 5.24527 92.6492 5.29368 93.5761C5.39606 95.5097 5.42579 96.9752 5.38287 97.9726C6.40881 97.9649 7.14523 97.9454 7.59214 97.9141C8.03905 97.8828 8.50136 97.8425 8.97908 97.793C9.45679 97.7435 10.3473 97.633 11.6505 97.4616C12.9538 97.2901 13.9246 97.1821 14.563 97.1374C15.2174 97.0915 15.6677 97.1081 15.9138 97.1871C16.1587 97.2502 16.2917 97.4333 16.3128 97.7366C16.3261 97.9281 16.2797 98.0677 16.1735 98.1554C16.0822 98.2259 15.9983 98.2879 15.9218 98.3414C15.8443 98.3789 15.7427 98.4181 15.6173 98.4589C15.5066 98.4827 15.404 98.506 15.3094 98.5286C15.2307 98.5502 15.1121 98.5745 14.9536 98.6017C14.8099 98.6117 14.6908 98.6281 14.5961 98.6507C14.5163 98.6563 14.4046 98.6641 14.2609 98.6742L13.9257 98.6977C10.8074 99.0604 8.80929 99.2724 7.93144 99.3339C5.29789 99.5183 3.95559 99.2434 3.90453 98.5092C3.76939 97.027 3.65521 95.6155 3.56198 94.2747C3.25454 89.8534 3.14236 86.1642 3.22544 83.2072C3.52399 82.657 4.47652 82.2856 6.08302 82.0929C7.08412 81.9587 7.96773 81.8647 8.73386 81.8111ZM16.6671 87.2222C16.9129 86.8361 17.2433 86.6285 17.6583 86.5994C17.8179 86.5882 17.9803 86.617 18.1455 86.6856C18.6294 88.801 19.4682 90.7151 20.6619 92.4279C21.2731 91.0699 21.9909 89.1671 22.8151 86.7195C23.1837 86.4852 23.4798 86.3602 23.7032 86.3446C23.9426 86.3278 24.1358 86.3384 24.2828 86.3762C24.0357 87.436 23.7278 88.428 23.359 89.352C22.9902 90.276 22.6404 91.1265 22.3095 91.9035C21.9786 92.6805 21.7375 93.2508 21.5864 93.6142C22.0721 94.1416 22.4783 94.5622 22.8049 94.8762C23.1463 95.1731 23.6085 95.4775 24.1916 95.7895C24.9591 96.217 25.67 96.4078 26.3244 96.362C26.6596 96.3385 26.8955 96.3862 27.032 96.5049C26.8942 97.0599 26.4901 97.3608 25.8197 97.4078C24.7025 97.486 23.5547 97.1253 22.3764 96.3256C21.9381 96.0195 21.6768 95.8373 21.5926 95.7791C21.5232 95.7037 21.2927 95.5033 20.9012 95.1779C20.7868 95.3784 20.6266 95.7264 20.4205 96.222C20.2303 96.7165 20.0654 97.113 19.9258 97.4115C19.785 97.694 19.5846 97.9245 19.3243 98.1032C19.063 98.2658 18.8286 98.3544 18.6211 98.3689C18.4295 98.3823 18.2443 98.3712 18.0654 98.3357C18.2842 97.791 18.6093 97.0465 19.0408 96.1021C19.4883 95.1565 19.7882 94.51 19.9405 94.1625C19.0558 92.9734 18.3369 91.8609 17.7837 90.825C17.2454 89.772 16.8732 88.5711 16.6671 87.2222ZM28.8113 96.9337C28.9491 98.2232 29.2358 100.04 29.6714 102.383C29.3892 102.707 29.0406 102.884 28.6256 102.913C28.5458 102.919 28.4575 102.917 28.3606 102.908C28.3014 102.286 28.0834 100.882 27.7068 98.6951C27.3462 96.507 27.1253 94.8303 27.0443 93.6651C26.9622 92.484 26.963 91.4574 27.0467 90.5854C27.1304 89.7134 27.3217 88.8901 27.6207 88.1153C28.2313 86.5167 29.5022 85.6499 31.4335 85.5146C32.6306 85.4308 33.6577 86.0165 34.5148 87.2717C35.3719 88.5269 35.861 90.0244 35.982 91.7642C36.0774 93.1369 35.7143 94.3733 34.8927 95.4734C34.071 96.5734 32.8701 97.1788 31.2899 97.2894C30.3163 97.3576 29.4901 97.239 28.8113 96.9337ZM31.3319 86.8209C29.9752 86.9159 29.1222 87.6814 28.773 89.1173C28.4732 90.3412 28.3965 92.0066 28.543 94.1135C28.5963 94.8797 28.6437 95.4457 28.6852 95.8117C30.1268 96.0156 31.103 96.0996 31.6137 96.0638C32.5394 95.999 33.2481 95.5805 33.7397 94.8083C34.2302 94.0201 34.4383 93.0913 34.364 92.0218C34.2541 90.4417 33.9248 89.1655 33.376 88.1935C32.8432 87.2203 32.1618 86.7628 31.3319 86.8209ZM38.5381 82.6113C38.4282 81.0311 38.1389 79.9848 37.6703 79.4723C37.8567 79.1545 38.2052 78.9777 38.716 78.9419C38.8118 78.9352 38.9161 78.9359 39.0289 78.9441C39.4557 79.3152 39.7356 80.4584 39.8688 82.3738C39.941 83.4113 39.9769 84.6197 39.9766 85.9991C39.9515 88.4068 39.9778 90.1692 40.0555 91.2865C40.2653 94.3032 40.9528 95.7708 42.1179 95.6892C42.1179 95.6892 42.4093 95.6127 42.9921 95.4596C43.1357 95.4495 43.2599 95.505 43.3645 95.626C43.3566 96.204 42.9057 96.5242 42.0119 96.5868C41.1341 96.6483 40.4374 96.4324 39.922 95.9392C39.4054 95.43 39.0555 94.7809 38.8723 93.9918C38.704 93.1856 38.6015 92.5191 38.5649 91.9924C38.5283 91.4656 38.4963 90.8905 38.469 90.2668C38.4405 89.6273 38.4491 88.7124 38.4947 87.5223C38.5836 85.1102 38.598 83.4732 38.5381 82.6113ZM44.5715 86.5916C45.2989 85.2896 46.4288 84.585 47.961 84.4777C49.4933 84.3704 50.7576 84.9074 51.7539 86.0887C52.7662 87.2689 53.3279 88.6571 53.4388 90.2532C53.5487 91.8334 53.1392 93.2094 52.2102 94.3811C51.2813 95.5529 50.0427 96.1929 48.4945 96.3013C46.9463 96.4097 45.7911 96.0576 45.0288 95.2448C44.2655 94.4161 43.8289 93.2117 43.719 91.6315C43.5759 89.5725 43.86 87.8925 44.5715 86.5916ZM45.7131 87.7868C45.5489 88.4238 45.4326 89.0575 45.3642 89.6878C45.3117 90.317 45.3043 90.903 45.3421 91.4457C45.3787 91.9724 45.4524 92.4564 45.5633 92.8978C45.6731 93.3231 45.8387 93.7446 46.0602 94.1621C46.2806 94.5637 46.5912 94.8788 46.992 95.1074C47.3917 95.32 47.855 95.4078 48.3817 95.3709C49.451 95.2961 50.3143 94.7946 50.9715 93.8664C51.6447 92.9371 51.938 91.85 51.8514 90.605C51.7648 89.36 51.3459 88.1783 50.5945 87.0601C49.858 85.9248 49.0109 85.3906 48.0532 85.4577C47.4786 85.4979 46.9897 85.7326 46.5865 86.1618C46.1833 86.5911 45.8922 87.1327 45.7131 87.7868ZM58.3684 93.2522L58.5351 94.6119C58.5595 94.9631 58.473 95.2177 58.2755 95.3759C58.0928 95.517 57.8977 95.5948 57.6902 95.6094C57.4987 95.6228 57.297 95.6048 57.0851 95.5555C56.6052 93.7286 56.1735 91.4411 55.7899 88.6932C55.4223 85.9442 55.2098 84.3872 55.1524 84.0223C55.3762 83.7821 55.6159 83.6531 55.8712 83.6352C56.1426 83.6162 56.3842 83.6313 56.5961 83.6807C56.6922 84.1391 56.8111 85.1572 56.9529 86.7352C57.0947 88.3131 57.2034 89.3 57.279 89.6956C57.4093 88.3392 57.7212 87.0583 58.2147 85.8529C58.4884 85.1761 58.8674 84.6283 59.3515 84.2095C59.8504 83.7736 60.3952 83.5349 60.9857 83.4936C61.5923 83.4511 62.1618 83.6839 62.6943 84.192C63.2417 84.6829 63.5304 85.1439 63.5603 85.5749C63.5714 85.7345 63.4845 85.8689 63.2997 85.978C63.1137 86.0713 62.901 86.1263 62.6616 86.143C62.4381 86.1587 62.2564 86.0832 62.1165 85.9165C61.9766 85.7499 61.8755 85.5645 61.8132 85.3604C61.7498 85.1403 61.6322 84.948 61.4604 84.7836C61.2886 84.6192 61.067 84.5465 60.7956 84.5655C60.0774 84.6158 59.5079 85.3052 59.087 86.6339C58.4392 88.62 58.1997 90.8261 58.3684 93.2522ZM66.21 90.177C66.2003 90.4985 66.1993 90.7151 66.2071 90.8268C66.2737 91.7845 66.6126 92.5066 67.2238 92.9931C67.851 93.4785 68.5636 93.6932 69.3616 93.6374C70.1597 93.5815 70.7983 93.4245 71.2776 93.1664C71.7728 92.9072 72.1232 92.642 72.3289 92.371C72.8536 91.6125 73.3553 91.2165 73.8342 91.183C74.0097 91.1707 74.2205 91.204 74.4666 91.283C74.3614 92.0763 73.8048 92.8371 72.7969 93.5652C71.8038 94.2763 70.5172 94.6872 68.9371 94.7978C67.8198 94.8761 66.8298 94.5925 65.9669 93.9472C65.119 93.2848 64.6522 92.3391 64.5668 91.1101C64.4813 89.881 64.638 88.6752 65.037 87.4924C65.4507 86.2926 66.0842 85.2538 66.9374 84.3761C67.8054 83.4812 68.7102 83.0009 69.6519 82.9349C70.6096 82.8679 71.3896 83.0138 71.9919 83.3726C72.6091 83.7143 72.9438 84.2603 72.996 85.0104C73.0925 86.3991 72.55 87.5919 71.3683 88.5889C70.2014 89.5688 68.9237 90.1073 67.5351 90.2045C67.168 90.2302 66.7263 90.2211 66.21 90.177ZM67.9746 89.2595C68.7248 89.207 69.3785 88.9207 69.9357 88.4005C70.493 87.8803 70.873 87.3484 71.0758 86.8049C71.2946 86.2603 71.389 85.7725 71.359 85.3416C71.329 84.9106 71.1353 84.5473 70.778 84.2515C70.4195 83.9398 70.0168 83.7996 69.5699 83.8309C68.7718 83.8867 68.0679 84.4894 67.4582 85.6388C66.8644 86.787 66.465 87.9618 66.2598 89.1631C66.9721 89.2576 67.5437 89.2897 67.9746 89.2595ZM82.178 77.198L92.5742 76.2055C92.9732 76.1775 93.2883 76.2116 93.5195 76.3077C93.7496 76.3878 93.8697 76.4997 93.8797 76.6434C93.8863 76.7391 93.8616 76.8451 93.8055 76.9613C92.1461 79.8523 89.7853 83.4981 86.7232 87.8987C85.2658 90.0056 84.1313 91.681 83.3196 92.9247C83.9774 92.9268 84.793 92.8937 85.7666 92.8255L92.9374 92.1551C93.9908 92.0813 94.8629 92.0523 95.5537 92.0681C95.5145 92.8889 94.8246 93.3462 93.4839 93.44L84.4523 94.337C82.3295 94.4857 81.2498 94.2966 81.2132 93.7699C81.2032 93.6262 81.2559 93.4622 81.3714 93.2776C82.4145 91.4403 84.1281 88.8663 86.5122 85.5557C88.9122 82.244 90.6687 79.5948 91.7815 77.6083C87.4364 78.0889 84.0109 78.417 81.5051 78.5924C80.8187 78.6405 80.4623 78.473 80.4356 78.0899C80.4001 77.5791 80.9809 77.2819 82.178 77.198ZM104.537 85.4485L104.609 88.2102C104.706 89.5988 104.93 90.5214 105.283 90.9779C105.497 91.2837 105.771 91.4249 106.106 91.4014C106.202 91.3947 106.336 91.3613 106.508 91.3011C106.837 91.1819 107.119 91.2102 107.356 91.3861C107.283 91.9526 106.744 92.271 105.738 92.3414C105.052 92.3895 104.577 92.134 104.314 91.575C104.108 91.1564 103.943 90.6306 103.819 89.9977C103.694 89.3489 103.599 88.9065 103.535 88.6704C102.635 90.7222 101.713 91.9977 100.769 92.4969C100.29 92.755 99.7232 92.9069 99.0688 92.9528C98.4144 92.9986 97.882 92.7231 97.4716 92.1263C97.0761 91.5124 96.8362 90.5989 96.7518 89.3859C96.6675 88.1728 96.7787 86.8899 97.0856 85.5372C97.3914 84.1685 97.8958 83.0024 98.5986 82.0389C99.3004 81.0595 100.106 80.538 101.016 80.4743C102.325 80.3826 103.232 80.8644 103.739 81.9196C104.17 82.8197 104.436 83.996 104.537 85.4485ZM98.6185 85.093C98.455 85.9706 98.3446 86.8043 98.2872 87.5943C98.2288 88.3682 98.2206 89.0585 98.2628 89.665C98.3039 90.2556 98.4591 90.758 98.7285 91.1722C99.0138 91.5853 99.356 91.7778 99.755 91.7499C100.617 91.6895 101.39 90.8174 102.075 89.1335C102.76 87.4495 103.054 85.9052 102.956 84.5006C102.893 83.5908 102.601 82.8574 102.081 82.3003C101.735 81.9396 101.299 81.7777 100.772 81.8146C100.262 81.8503 99.8118 82.1866 99.423 82.8233C99.0491 83.4429 98.7809 84.1995 98.6185 85.093ZM108.005 87.1544L107.475 76.4132C107.417 75.5832 107.33 75.02 107.213 74.7234C107.483 74.4479 107.913 74.2895 108.503 74.2481C108.861 75.9392 109.134 78.1255 109.32 80.8071C109.376 81.6051 109.433 83.4617 109.491 86.3767C109.96 82.286 111.161 80.173 113.092 80.0378C113.778 79.9897 114.331 80.3199 114.749 81.0285C115.182 81.7199 115.482 82.581 115.65 83.6118C115.818 84.6426 115.97 85.6745 116.106 86.7075C116.439 89.1863 116.972 90.4001 117.706 90.3486C117.722 90.3475 117.871 90.289 118.151 90.1731C118.776 89.9369 119.132 89.8639 119.219 89.9541C119.231 90.1296 118.999 90.3704 118.523 90.6764C118.046 90.9664 117.6 91.126 117.185 91.155C116.483 91.2042 115.915 90.8831 115.482 90.1916C115.064 89.4831 114.771 88.6134 114.603 87.5826C114.451 86.5507 114.316 85.5257 114.197 84.5075C114.093 83.4723 113.928 82.6016 113.702 81.8957C113.476 81.1737 113.155 80.8273 112.74 80.8563C112.229 80.8921 111.797 81.4837 111.444 82.6312C111.105 83.7616 110.863 85.0056 110.717 86.3631C110.571 87.7206 110.361 88.9703 110.088 90.1122C109.829 91.237 109.524 91.8117 109.173 91.8363C108.614 91.8754 108.225 90.3148 108.005 87.1544ZM126.982 83.8769L127.054 86.6387C127.151 88.0273 127.375 88.9499 127.728 89.4064C127.942 89.7122 128.216 89.8534 128.551 89.8299C128.647 89.8232 128.781 89.7898 128.953 89.7296C129.282 89.6103 129.564 89.6387 129.801 89.8146C129.728 90.381 129.189 90.6995 128.184 90.7699C127.497 90.8179 127.022 90.5625 126.759 90.0035C126.553 89.5848 126.389 89.0591 126.264 88.4262C126.139 87.7774 126.044 87.3349 125.98 87.0989C125.08 89.1507 124.158 90.4262 123.214 90.9253C122.735 91.1834 122.168 91.3354 121.514 91.3812C120.859 91.427 120.327 91.1516 119.917 90.5548C119.521 89.9409 119.281 89.0274 119.197 87.8143C119.113 86.6013 119.224 85.3184 119.531 83.9656C119.836 82.5969 120.341 81.4309 121.044 80.4674C121.745 79.488 122.551 78.9665 123.461 78.9028C124.77 78.8111 125.677 79.2929 126.184 80.3481C126.615 81.2482 126.881 82.4244 126.982 83.8769ZM121.064 83.5215C120.9 84.399 120.79 85.2328 120.732 86.0227C120.674 86.7967 120.666 87.487 120.708 88.0935C120.749 88.6841 120.904 89.1865 121.174 89.6006C121.459 90.0137 121.801 90.2063 122.2 90.1784C123.062 90.118 123.835 89.2459 124.52 87.5619C125.205 85.878 125.499 84.3337 125.401 82.9291C125.338 82.0193 125.046 81.2859 124.526 80.7288C124.18 80.3681 123.744 80.2062 123.217 80.243C122.707 80.2788 122.257 80.615 121.868 81.2517C121.494 81.8714 121.226 82.628 121.064 83.5215ZM132.835 88.0384L133.001 89.398C133.026 89.7492 132.939 90.0039 132.742 90.162C132.559 90.3031 132.364 90.381 132.156 90.3955C131.965 90.4089 131.763 90.3909 131.551 90.3416C131.071 88.5147 130.64 86.2272 130.256 83.4793C129.888 80.7303 129.676 79.1733 129.619 78.8084C129.842 78.5682 130.082 78.4392 130.337 78.4213C130.609 78.4023 130.85 78.4175 131.062 78.4668C131.158 78.9252 131.277 79.9434 131.419 81.5213C131.561 83.0993 131.67 84.0861 131.745 84.4818C131.875 83.1254 132.187 81.8444 132.681 80.639C132.955 79.9623 133.333 79.4144 133.818 78.9956C134.317 78.5597 134.861 78.3211 135.452 78.2797C136.058 78.2372 136.628 78.47 137.16 78.9781C137.708 79.4691 137.996 79.93 138.026 80.361C138.038 80.5206 137.951 80.655 137.766 80.7642C137.58 80.8574 137.367 80.9124 137.128 80.9291C136.904 80.9448 136.723 80.8693 136.583 80.7027C136.443 80.536 136.342 80.3506 136.279 80.1465C136.216 79.9264 136.098 79.7341 135.927 79.5697C135.755 79.4053 135.533 79.3326 135.262 79.3516C134.544 79.4019 133.974 80.0914 133.553 81.42C132.905 83.4061 132.666 85.6122 132.835 88.0384ZM146.996 82.4757L147.068 85.2374C147.164 86.626 147.389 87.5486 147.741 88.0051C147.955 88.3109 148.23 88.4521 148.565 88.4286C148.66 88.4219 148.794 88.3885 148.967 88.3283C149.295 88.2091 149.578 88.2374 149.815 88.4133C149.742 88.9798 149.203 89.2982 148.197 89.3686C147.511 89.4167 147.036 89.1612 146.772 88.6022C146.567 88.1836 146.402 87.6578 146.278 87.0249C146.153 86.3761 146.058 85.9336 145.993 85.6976C145.093 87.7494 144.172 89.0249 143.228 89.5241C142.749 89.7822 142.182 89.9341 141.527 89.9799C140.873 90.0258 140.341 89.7503 139.93 89.1535C139.535 88.5396 139.295 87.6261 139.21 86.4131C139.126 85.2 139.237 83.9171 139.544 82.5643C139.85 81.1956 140.354 80.0296 141.057 79.0661C141.759 78.0867 142.565 77.5652 143.474 77.5015C144.783 77.4098 145.691 77.8916 146.197 78.9468C146.629 79.8469 146.895 81.0232 146.996 82.4757ZM141.077 82.1202C140.914 82.9978 140.803 83.8315 140.746 84.6214C140.687 85.3954 140.679 86.0857 140.721 86.6922C140.762 87.2828 140.918 87.7852 141.187 88.1994C141.472 88.6124 141.815 88.805 142.214 88.7771C143.075 88.7167 143.849 87.8446 144.534 86.1606C145.219 84.4767 145.512 82.9324 145.414 81.5278C145.351 80.618 145.06 79.8846 144.54 79.3275C144.194 78.9668 143.758 78.8049 143.231 78.8418C142.72 78.8775 142.27 79.2138 141.882 79.8505C141.508 80.4701 141.239 81.2267 141.077 82.1202ZM170.47 87.6407C170.239 88.0097 169.884 88.211 169.405 88.2445C169.278 88.2535 169.149 88.2465 169.019 88.2235C168.612 87.45 168.271 86.3431 167.994 84.9029C167.733 83.4457 167.546 82.4884 167.434 82.0311C165.69 82.089 163.948 82.1789 162.208 82.3007C160.468 82.4226 158.917 82.6033 157.554 82.8431C157.456 83.5076 157.365 84.5004 157.28 85.8215C157.21 87.1256 157.151 88.0039 157.103 88.4564C156.56 88.9595 156.046 89.0596 155.56 88.7569C155.581 88.3704 155.611 87.7589 155.649 86.9222C155.687 86.0855 155.718 85.3776 155.742 84.7985C155.78 84.2023 155.84 83.4523 155.922 82.5484C156.003 81.6445 156.086 80.8688 156.169 80.2215C156.267 79.557 156.408 78.8173 156.592 78.0025C156.775 77.1717 156.974 76.46 157.189 75.8675C157.405 75.2751 157.676 74.6707 158.002 74.0544C158.344 73.437 158.717 72.9297 159.123 72.5324C160.056 71.649 161.105 71.1666 162.27 71.085C163.435 71.0034 164.432 71.3827 165.26 72.2229C166.104 73.062 166.776 74.1938 167.276 75.6184C167.777 77.043 168.197 78.4811 168.539 79.9328C168.88 81.3845 169.216 82.8686 169.546 84.3853C169.876 85.9019 170.184 86.9871 170.47 87.6407ZM165.093 74.6646C164.735 73.9037 164.302 73.3245 163.793 72.9271C163.284 72.5137 162.677 72.3316 161.975 72.3808C161.273 72.4299 160.618 72.8206 160.012 73.5528C159.405 74.2849 158.946 75.1752 158.634 76.2235C158.079 78.171 157.771 79.9569 157.707 81.5813C159.291 81.294 160.889 81.0939 162.501 80.981C164.113 80.8682 165.673 80.8071 167.18 80.7978C167.099 80.5629 166.94 80.0046 166.702 79.1231C166.464 78.2415 166.227 77.4723 165.988 76.8153C165.765 76.1412 165.467 75.4243 165.093 74.6646ZM174.007 70.576C174.349 77.8017 174.653 83.4423 174.919 87.4976C174.697 87.7698 174.491 87.9125 174.299 87.9259C174.124 87.9382 173.969 87.909 173.836 87.8381C173.452 87.6244 173.238 87.1903 173.192 86.5359C172.69 78.8562 172.434 74.3591 172.422 73.0447C172.411 71.7303 172.478 70.9637 172.623 70.745C172.769 70.5264 172.953 70.4092 173.176 70.3936C173.4 70.3779 173.677 70.4387 174.007 70.576ZM191.021 79.3932L191.093 82.1549C191.189 83.5435 191.414 84.4661 191.766 84.9226C191.98 85.2284 192.255 85.3696 192.59 85.3461C192.686 85.3394 192.82 85.306 192.992 85.2458C193.32 85.1266 193.603 85.1549 193.84 85.3308C193.767 85.8973 193.228 86.2157 192.222 86.2861C191.536 86.3342 191.061 86.0787 190.797 85.5197C190.592 85.1011 190.427 84.5753 190.303 83.9424C190.178 83.2936 190.083 82.8511 190.018 82.6151C189.118 84.6669 188.197 85.9424 187.253 86.4416C186.774 86.6997 186.207 86.8516 185.552 86.8974C184.898 86.9433 184.366 86.6678 183.955 86.071C183.56 85.4571 183.32 84.5436 183.235 83.3306C183.151 82.1175 183.262 80.8346 183.569 79.4819C183.875 78.1132 184.379 76.9471 185.082 75.9836C185.784 75.0042 186.59 74.4827 187.5 74.419C188.808 74.3273 189.716 74.8091 190.222 75.8643C190.654 76.7644 190.92 77.9407 191.021 79.3932ZM185.102 79.0377C184.939 79.9153 184.828 80.749 184.771 81.539C184.712 82.3129 184.704 83.0032 184.746 83.6097C184.787 84.2003 184.943 84.7027 185.212 85.1169C185.497 85.53 185.84 85.7225 186.239 85.6946C187.101 85.6342 187.874 84.7621 188.559 83.0781C189.244 81.3942 189.537 79.8499 189.439 78.4453C189.376 77.5355 189.085 76.8021 188.565 76.245C188.219 75.8843 187.783 75.7224 187.256 75.7593C186.745 75.795 186.295 76.1313 185.907 76.768C185.533 77.3876 185.265 78.1442 185.102 79.0377ZM204.483 84.7059C204.217 85.0292 203.9 85.2038 203.533 85.2295C202.847 85.2775 202.311 84.9462 201.924 84.2354C201.538 83.5247 201.277 82.6448 201.139 81.5958C201.018 80.5457 200.913 79.4945 200.824 78.4421C200.735 77.3898 200.585 76.5021 200.374 75.7791C200.179 75.0549 199.875 74.7073 199.46 74.7364C198.901 74.7755 198.457 75.3118 198.128 76.3453C197.815 77.3777 197.621 78.514 197.547 79.7542C197.339 83.2172 197.042 85.1708 196.655 85.6148C196.378 85.7786 196.136 85.8677 195.928 85.8823C195.721 85.8968 195.544 85.8851 195.397 85.8473C194.959 84.4023 194.568 81.8875 194.222 78.3029C194.066 76.5175 193.954 75.3625 193.885 74.838C194.205 74.5911 194.484 74.4592 194.724 74.4424C194.963 74.4257 195.156 74.4362 195.303 74.474C195.431 75.1548 195.568 76.5566 195.716 78.6795C195.88 80.8012 195.981 82.0212 196.019 82.3393C196.075 81.9985 196.133 81.4491 196.193 80.6911C196.268 79.932 196.337 79.3096 196.4 78.8241C196.461 78.3226 196.573 77.7373 196.735 77.0684C196.897 76.3995 197.092 75.8645 197.321 75.4635C197.548 75.0466 197.876 74.6869 198.304 74.3842C198.731 74.0656 199.224 73.8868 199.783 73.8477C200.533 73.7951 201.099 74.1003 201.482 74.7632C201.88 75.409 202.13 76.2335 202.232 77.2369C202.334 78.2402 202.421 79.2606 202.493 80.2981C202.581 81.3345 202.775 82.2753 203.074 83.1204C203.389 83.9645 203.859 84.4929 204.483 84.7059ZM213.745 65.46C213.52 70.9932 213.489 74.933 213.652 77.2793C213.814 79.6097 214.192 81.925 214.785 84.2252C214.488 84.5667 214.22 84.7459 213.98 84.7627C213.741 84.7794 213.539 84.7615 213.375 84.7088C212.958 83.5511 212.669 82.2802 212.508 80.896C212.167 81.5294 211.91 81.9805 211.736 82.2493C211.579 82.5169 211.293 82.9138 210.881 83.4399C210.133 84.4546 209.201 85.0011 208.084 85.0793C207.238 85.1385 206.596 84.7905 206.159 84.0352C205.736 83.2628 205.482 82.2621 205.397 81.0331C205.31 79.7881 205.364 78.5974 205.557 77.4611C205.766 76.3078 206.185 75.3 206.815 74.4379C207.443 73.5599 208.26 73.0857 209.266 73.0153C209.872 72.9728 210.44 73.0614 210.968 73.281C211.497 73.5006 211.872 73.8192 212.093 74.2368C212.095 73.8036 212.081 73.1389 212.051 72.2428C212.021 71.3468 211.998 70.5544 211.982 69.8659C211.981 69.1602 212.003 68.4449 212.049 67.7199C212.118 66.1753 212.456 65.3818 213.063 65.3393C213.27 65.3248 213.497 65.365 213.745 65.46ZM211.603 75.1372C211.387 74.7995 211.106 74.5625 210.759 74.4264C210.412 74.2743 209.959 74.2178 209.4 74.2569C208.858 74.2949 208.369 74.6419 207.933 75.2979C207.077 76.5929 206.73 78.4056 206.892 80.7359C206.944 81.4861 207.116 82.2279 207.407 82.9614C207.698 83.6788 208.074 84.0214 208.537 83.9889C209.208 83.942 209.832 83.4572 210.409 82.5347C210.986 81.6121 211.411 80.5719 211.684 79.414C211.955 78.2402 212.059 77.1984 211.996 76.2886C211.966 75.8576 211.835 75.4738 211.603 75.1372ZM222.119 74.0641C221.401 74.1143 220.902 73.9729 220.622 73.6396C220.605 73.3842 220.694 73.1774 220.892 73.0192C221.105 72.8599 221.339 72.7554 221.592 72.7056C221.844 72.6398 222.256 72.5709 222.829 72.4987C222.846 72.0644 222.832 71.512 222.785 70.8417C222.754 70.1542 222.729 69.5705 222.712 69.0905C222.672 67.8262 222.81 67.0387 223.125 66.7279C223.26 66.5902 223.407 66.5157 223.566 66.5045C223.742 66.4922 223.895 66.4976 224.025 66.5206C224.153 67.6664 224.225 68.3591 224.241 68.5985L224.347 72.1999C224.38 72.2136 224.469 72.2154 224.612 72.2054L226.331 72.0129C227.576 71.9257 228.212 72.0737 228.239 72.4567C228.276 72.9994 228.075 73.3343 227.635 73.4613C227.431 73.5238 227.185 73.565 226.898 73.5851C226.626 73.6041 226.265 73.5974 225.814 73.5648C225.377 73.5152 225.063 73.4971 224.872 73.5105C224.68 73.5239 224.553 73.5408 224.49 73.5612C224.475 74.0275 224.483 74.492 224.515 74.9549C224.546 75.4018 224.593 75.9679 224.657 76.6531C224.736 77.3213 224.856 78.1229 225.017 79.0579C225.194 79.9918 225.482 80.7896 225.881 81.4514C226.279 82.0972 226.749 82.4011 227.292 82.3631C227.563 82.3441 227.875 82.218 228.228 81.9848C228.579 81.7356 228.851 81.6043 229.042 81.5909C229.25 81.5764 229.429 81.612 229.579 81.6977C229.744 81.7663 229.831 81.8565 229.838 81.9682C229.862 82.3034 229.541 82.6547 228.877 83.0219C228.228 83.3721 227.664 83.564 227.185 83.5975C225.429 83.7205 224.22 82.137 223.559 78.8472C223.364 77.8985 223.154 76.2611 222.928 73.9352C222.676 74.001 222.407 74.0439 222.119 74.0641ZM238.46 76.0717L238.531 78.8334C238.628 80.222 238.852 81.1446 239.205 81.6011C239.419 81.9069 239.693 82.0481 240.028 82.0246C240.124 82.0179 240.258 81.9845 240.43 81.9243C240.759 81.8051 241.041 81.8334 241.278 82.0093C241.205 82.5758 240.666 82.8942 239.661 82.9646C238.974 83.0127 238.499 82.7572 238.236 82.1982C238.03 81.7796 237.866 81.2538 237.741 80.6209C237.616 79.9721 237.521 79.5297 237.457 79.2936C236.557 81.3454 235.635 82.6209 234.691 83.1201C234.212 83.3782 233.645 83.5301 232.991 83.576C232.337 83.6218 231.804 83.3463 231.394 82.7495C230.998 82.1356 230.758 81.2221 230.674 80.0091C230.59 78.796 230.701 77.5131 231.008 76.1604C231.314 74.7917 231.818 73.6256 232.521 72.6621C233.223 71.6827 234.028 71.1612 234.938 71.0975C236.247 71.0058 237.154 71.4876 237.661 72.5428C238.092 73.4429 238.359 74.6192 238.46 76.0717ZM232.541 75.7162C232.377 76.5938 232.267 77.4275 232.209 78.2175C232.151 78.9914 232.143 79.6817 232.185 80.2882C232.226 80.8788 232.381 81.3812 232.651 81.7954C232.936 82.2085 233.278 82.401 233.677 82.3731C234.539 82.3127 235.312 81.4406 235.997 79.7566C236.682 78.0727 236.976 76.5284 236.878 75.1238C236.815 74.214 236.523 73.4806 236.003 72.9235C235.657 72.5628 235.221 72.4009 234.694 72.4378C234.184 72.4735 233.734 72.8098 233.345 73.4465C232.971 74.0661 232.703 74.8227 232.541 75.7162ZM242.832 64.8428C242.926 65.959 242.992 66.7964 243.031 67.3551C243.069 67.8978 243.099 68.441 243.12 68.9848C243.158 69.5275 243.208 70.5826 243.268 72.1502C243.328 73.7018 243.382 74.9331 243.429 75.844C244.007 75.3866 244.688 74.6972 245.474 73.7761C246.259 72.839 246.973 72.0352 247.616 71.3646C248.634 70.315 249.388 69.9655 249.877 70.3161C250.063 70.4475 250.128 70.5793 250.073 70.7114C249.937 71.0578 249.598 71.4905 249.057 72.0096C248.531 72.5275 247.907 73.1166 247.183 73.7768C246.459 74.437 245.891 75.0381 245.48 75.5801C246.656 75.6582 247.635 76.2472 248.417 77.3473C248.757 77.8528 249.089 78.3588 249.413 78.8654C250.244 80.2027 251.107 81.0885 252.004 81.523C251.707 81.8646 251.351 82.0499 250.936 82.0789C250.521 82.108 250.092 81.9375 249.649 81.5676C249.222 81.1965 248.837 80.7342 248.494 80.1808C248.167 79.6263 247.832 79.0724 247.488 78.519C246.705 77.1784 245.859 76.54 244.949 76.6037C244.518 76.6339 244.161 76.8032 243.878 77.1117C243.594 77.4043 243.462 77.7022 243.483 78.0055C243.616 79.9209 243.683 81.3437 243.684 82.2739C243.481 82.5928 243.252 82.7612 242.997 82.7791C242.917 82.7847 242.828 82.7749 242.73 82.7497C242.369 82.6306 242.173 82.3476 242.142 81.9007C242.127 81.4527 242.08 80.0926 242.003 77.8205C241.775 72.0142 241.606 68.305 241.494 66.6928C241.441 65.9427 241.478 65.4348 241.604 65.1694C241.746 64.9028 241.921 64.7623 242.128 64.7478C242.352 64.7321 242.586 64.7638 242.832 64.8428ZM253.907 77.0351C253.897 77.3566 253.896 77.5732 253.904 77.6849C253.97 78.6426 254.309 79.3647 254.921 79.8512C255.548 80.3365 256.26 80.5513 257.058 80.4954C257.856 80.4395 258.495 80.2826 258.974 80.0244C259.47 79.7652 259.82 79.5001 260.026 79.2291C260.55 78.4706 261.052 78.0746 261.531 78.041C261.706 78.0287 261.917 78.0621 262.163 78.1411C262.058 78.9344 261.502 79.6951 260.494 80.4233C259.501 81.1344 258.214 81.5453 256.634 81.6559C255.517 81.7341 254.527 81.4506 253.664 80.8053C252.816 80.1429 252.349 79.1972 252.264 77.9681C252.178 76.7391 252.335 75.5332 252.734 74.3505C253.147 73.1506 253.781 72.1119 254.634 71.2341C255.502 70.3393 256.407 69.8589 257.349 69.793C258.306 69.726 259.086 69.8718 259.689 70.2306C260.306 70.5724 260.641 71.1183 260.693 71.8685C260.789 73.2572 260.247 74.45 259.065 75.4469C257.898 76.4268 256.62 76.9654 255.232 77.0626C254.865 77.0883 254.423 77.0791 253.907 77.0351ZM255.671 76.1176C256.422 76.0651 257.075 75.7787 257.632 75.2585C258.19 74.7383 258.57 74.2065 258.773 73.663C258.991 73.1184 259.086 72.6306 259.056 72.1997C259.026 71.7687 258.832 71.4053 258.475 71.1096C258.116 70.7979 257.714 70.6576 257.267 70.6889C256.469 70.7448 255.765 71.3474 255.155 72.4968C254.561 73.6451 254.162 74.8199 253.957 76.0211C254.669 76.1156 255.24 76.1478 255.671 76.1176ZM12.8703 119.847C12.5881 120.172 12.2954 120.344 11.9921 120.366C11.6889 120.387 11.4326 120.277 11.2233 120.035C11.0289 119.775 10.8653 119.498 10.7324 119.203C10.5985 118.891 10.3711 118.619 10.05 118.384C9.74387 118.133 9.36734 118.023 8.92043 118.055C8.30239 118.162 7.76686 118.649 7.31382 119.514C6.85968 120.364 6.5473 121.292 6.3767 122.299C6.2061 123.305 6.15132 124.247 6.21236 125.125C6.2723 125.987 6.56388 126.72 7.0871 127.325C7.62517 127.913 8.30919 128.178 9.13916 128.12C10.0968 128.053 10.8396 127.664 11.3676 126.953C11.587 126.649 11.7905 126.346 11.978 126.045C12.4422 125.338 12.8817 124.971 13.2967 124.942C13.4404 124.932 13.6506 124.957 13.9275 125.018C13.9686 125.608 13.4803 126.429 12.4627 127.478C11.4599 128.511 10.328 129.071 9.0671 129.159C7.80619 129.248 6.78088 128.919 5.99119 128.172C5.21634 127.408 4.78452 126.388 4.69573 125.111C4.58142 123.467 4.86612 121.795 5.54985 120.095C5.89338 119.269 6.39054 118.577 7.04135 118.018C7.69104 117.443 8.43885 117.126 9.28478 117.067C10.1307 117.007 10.829 117.247 11.3797 117.786C11.9453 118.308 12.4421 118.995 12.8703 119.847ZM16.2582 118.647C16.9856 117.345 18.1155 116.641 19.6477 116.534C21.1799 116.426 22.4442 116.963 23.4406 118.145C24.4529 119.325 25.0145 120.713 25.1255 122.309C25.2354 123.889 24.8259 125.265 23.8969 126.437C22.968 127.609 21.7294 128.249 20.1812 128.357C18.633 128.466 17.4777 128.113 16.7155 127.301C15.9522 126.472 15.5156 125.268 15.4057 123.687C15.2625 121.628 15.5467 119.948 16.2582 118.647ZM17.3998 119.843C17.2356 120.48 17.1193 121.113 17.0509 121.744C16.9984 122.373 16.991 122.959 17.0287 123.502C17.0654 124.028 17.1391 124.512 17.25 124.954C17.3598 125.379 17.5254 125.8 17.7469 126.218C17.9673 126.62 18.2779 126.935 18.6787 127.163C19.0784 127.376 19.5416 127.464 20.0684 127.427C21.1377 127.352 22.001 126.85 22.6582 125.922C23.3314 124.993 23.6247 123.906 23.5381 122.661C23.4515 121.416 23.0326 120.234 22.2812 119.116C21.5446 117.981 20.6976 117.446 19.7399 117.514C19.1653 117.554 18.6764 117.788 18.2732 118.218C17.87 118.647 17.5789 119.189 17.3998 119.843ZM37.6653 126.459C37.399 126.783 37.0824 126.957 36.7153 126.983C36.029 127.031 35.4927 126.7 35.1065 125.989C34.7202 125.278 34.4586 124.398 34.3215 123.349C34.2003 122.299 34.0952 121.248 34.0059 120.196C33.9167 119.143 33.7668 118.256 33.5561 117.533C33.3614 116.808 33.0566 116.461 32.6416 116.49C32.083 116.529 31.6391 117.065 31.31 118.099C30.9969 119.131 30.8032 120.268 30.7291 121.508C30.5208 124.971 30.2236 126.924 29.8375 127.368C29.5601 127.532 29.3177 127.621 29.1103 127.636C28.9028 127.65 28.7255 127.639 28.5785 127.601C28.1413 126.156 27.7499 123.641 27.4044 120.056C27.2482 118.271 27.1358 117.116 27.0672 116.591C27.3869 116.345 27.6664 116.213 27.9058 116.196C28.1452 116.179 28.3384 116.19 28.4854 116.228C28.6129 116.908 28.7505 118.31 28.8981 120.433C29.0617 122.555 29.1625 123.775 29.2007 124.093C29.2572 123.752 29.3152 123.203 29.3748 122.445C29.4503 121.685 29.5193 121.063 29.5818 120.578C29.6431 120.076 29.7548 119.491 29.9168 118.822C30.0788 118.153 30.2741 117.618 30.5029 117.217C30.7305 116.8 31.0583 116.44 31.4864 116.138C31.9133 115.819 32.4061 115.64 32.9647 115.601C33.7149 115.549 34.2814 115.854 34.6643 116.517C35.0621 117.162 35.3119 117.987 35.4137 118.99C35.5156 119.994 35.6026 121.014 35.6747 122.052C35.7628 123.088 35.9565 124.029 36.2559 124.874C36.5712 125.718 37.041 126.246 37.6653 126.459ZM38.5845 116.988C37.8663 117.038 37.3673 116.897 37.0875 116.564C37.0697 116.308 37.1596 116.101 37.3571 115.943C37.5706 115.784 37.8039 115.679 38.057 115.63C38.3091 115.564 38.7213 115.495 39.2936 115.423C39.3116 114.988 39.2972 114.436 39.2506 113.766C39.2188 113.078 39.1943 112.494 39.177 112.015C39.1372 110.75 39.2749 109.963 39.5901 109.652C39.7248 109.514 39.872 109.44 40.0316 109.428C40.2072 109.416 40.3599 109.422 40.4898 109.445C40.6176 110.59 40.6899 111.283 40.7065 111.522L40.8126 115.124C40.8456 115.138 40.934 115.139 41.0776 115.129L42.7964 114.937C44.0413 114.85 44.6771 114.998 44.7038 115.381C44.7415 115.923 44.5403 116.258 44.1 116.385C43.8958 116.448 43.6501 116.489 43.3628 116.509C43.0915 116.528 42.7301 116.521 42.2788 116.489C41.8423 116.439 41.5283 116.421 41.3368 116.434C41.1452 116.448 41.0181 116.465 40.9554 116.485C40.9397 116.951 40.9479 117.416 40.9801 117.879C41.0112 118.326 41.0586 118.892 41.1222 119.577C41.2008 120.245 41.3207 121.047 41.4819 121.982C41.6591 122.916 41.9472 123.714 42.346 124.375C42.7438 125.021 43.214 125.325 43.7567 125.287C44.028 125.268 44.34 125.142 44.6927 124.909C45.0442 124.66 45.3158 124.528 45.5073 124.515C45.7148 124.5 45.8937 124.536 46.044 124.622C46.2092 124.69 46.2956 124.78 46.3034 124.892C46.3267 125.227 46.0063 125.579 45.3422 125.946C44.6929 126.296 44.1289 126.488 43.65 126.522C41.8943 126.644 40.6856 125.061 40.0238 121.771C39.8295 120.822 39.6194 119.185 39.3935 116.859C39.1415 116.925 38.8718 116.968 38.5845 116.988ZM50.0218 123.91L50.1885 125.27C50.2129 125.621 50.1264 125.876 49.9289 126.034C49.7462 126.175 49.5512 126.253 49.3437 126.267C49.1521 126.281 48.9504 126.263 48.7385 126.213C48.2586 124.386 47.8269 122.099 47.4433 119.351C47.0758 116.602 46.8633 115.045 46.8058 114.68C47.0297 114.44 47.2693 114.311 47.5247 114.293C47.796 114.274 48.0376 114.289 48.2496 114.338C48.3456 114.797 48.4645 115.815 48.6063 117.393C48.7481 118.971 48.8568 119.958 48.9325 120.353C49.0627 118.997 49.3746 117.716 49.8682 116.511C50.1419 115.834 50.5208 115.286 51.0049 114.867C51.5039 114.431 52.0486 114.193 52.6392 114.151C53.2457 114.109 53.8152 114.342 54.3477 114.85C54.8951 115.341 55.1838 115.802 55.2137 116.233C55.2248 116.392 55.138 116.527 54.9531 116.636C54.7671 116.729 54.5544 116.784 54.315 116.801C54.0915 116.817 53.9099 116.741 53.77 116.574C53.6301 116.408 53.529 116.222 53.4667 116.018C53.4032 115.798 53.2856 115.606 53.1138 115.441C52.942 115.277 52.7204 115.204 52.4491 115.223C51.7308 115.274 51.1613 115.963 50.7404 117.292C50.0926 119.278 49.8531 121.484 50.0218 123.91ZM57.4074 115.766C58.1349 114.464 59.2647 113.76 60.797 113.652C62.3292 113.545 63.5935 114.082 64.5898 115.263C65.6022 116.444 66.1638 117.832 66.2748 119.428C66.3847 121.008 65.9751 122.384 65.0462 123.556C64.1172 124.728 62.8786 125.368 61.3304 125.476C59.7822 125.584 58.627 125.232 57.8648 124.42C57.1015 123.591 56.6649 122.386 56.555 120.806C56.4118 118.747 56.696 117.067 57.4074 115.766ZM58.5491 116.962C58.3849 117.599 58.2686 118.232 58.2001 118.863C58.1476 119.492 58.1403 120.078 58.178 120.62C58.2146 121.147 58.2884 121.631 58.3993 122.072C58.509 122.498 58.6747 122.919 58.8962 123.337C59.1166 123.738 59.4272 124.054 59.828 124.282C60.2277 124.495 60.6909 124.583 61.2176 124.546C62.287 124.471 63.1503 123.969 63.8075 123.041C64.4806 122.112 64.7739 121.025 64.6874 119.78C64.6008 118.535 64.1818 117.353 63.4304 116.235C62.6939 115.099 61.8468 114.565 60.8892 114.632C60.3146 114.673 59.8257 114.907 59.4225 115.337C59.0193 115.766 58.7281 116.307 58.5491 116.962ZM68.8157 110.565C68.7058 108.985 68.4166 107.938 67.9479 107.426C68.1343 107.108 68.4829 106.931 68.9936 106.895C69.0894 106.889 69.1937 106.889 69.3065 106.898C69.7333 107.269 70.0133 108.412 70.1464 110.327C70.2186 111.365 70.2545 112.573 70.2542 113.953C70.2291 116.36 70.2555 118.123 70.3332 119.24C70.5429 122.257 71.2304 123.724 72.3955 123.643C72.3955 123.643 72.6869 123.566 73.2697 123.413C73.4134 123.403 73.5375 123.459 73.6421 123.579C73.6342 124.157 73.1833 124.478 72.2895 124.54C71.4117 124.602 70.715 124.386 70.1996 123.893C69.683 123.384 69.3331 122.734 69.15 121.945C68.9816 121.139 68.8792 120.473 68.8425 119.946C68.8059 119.419 68.7739 118.844 68.7466 118.22C68.7182 117.581 68.7267 116.666 68.7723 115.476C68.8612 113.064 68.8757 111.427 68.8157 110.565ZM80.2499 114.167C80.9774 112.865 82.1072 112.16 83.6395 112.053C85.1717 111.946 86.436 112.483 87.4324 113.664C88.4447 114.844 89.0063 116.232 89.1173 117.829C89.2272 119.409 88.8176 120.785 87.8887 121.956C86.9597 123.128 85.7211 123.768 84.1729 123.877C82.6247 123.985 81.4695 123.633 80.7073 122.82C79.944 121.991 79.5074 120.787 79.3975 119.207C79.2543 117.148 79.5385 115.468 80.2499 114.167ZM81.3916 115.362C81.2274 115.999 81.1111 116.633 81.0426 117.263C80.9902 117.892 80.9828 118.478 81.0205 119.021C81.0571 119.548 81.1309 120.032 81.2418 120.473C81.3515 120.898 81.5172 121.32 81.7387 121.737C81.9591 122.139 82.2697 122.454 82.6705 122.683C83.0702 122.895 83.5334 122.983 84.0601 122.946C85.1295 122.871 85.9928 122.37 86.65 121.442C87.3232 120.512 87.6164 119.425 87.5299 118.18C87.4433 116.935 87.0243 115.754 86.273 114.635C85.5364 113.5 84.6893 112.966 83.7317 113.033C83.1571 113.073 82.6682 113.308 82.265 113.737C81.8618 114.166 81.5707 114.708 81.3916 115.362ZM93.3904 123.4C93.1031 123.42 92.7913 121.012 92.455 116.175C92.313 114.132 92.219 112.896 92.1731 112.466L91.6942 112.5C91.4708 112.515 91.2952 112.528 91.1675 112.536C91.0387 112.529 90.8706 112.533 90.6631 112.548C90.4704 112.545 90.3092 112.532 90.1793 112.509C90.0653 112.485 89.9428 112.454 89.8118 112.415C89.5657 112.336 89.4344 112.177 89.4177 111.937C89.3966 111.634 89.8809 111.448 90.8705 111.378C91.3014 111.348 91.6936 111.337 92.0469 111.344C92.0407 111.024 92.0204 110.616 91.986 110.121C91.9664 109.61 91.9552 109.217 91.9523 108.945C91.9482 108.656 91.9403 108.312 91.9286 107.912C91.9327 107.511 91.951 107.197 91.9833 106.97C92.0316 106.742 92.0942 106.489 92.1711 106.211C92.2469 105.917 92.3596 105.692 92.5093 105.538C92.6589 105.383 92.8324 105.226 93.0299 105.068C93.3782 104.771 93.9753 104.593 94.8212 104.534C95.6831 104.473 96.3285 104.645 96.7575 105.048C97.2013 105.434 97.6178 106.118 98.007 107.101C97.7875 107.406 97.5182 107.569 97.199 107.591C97.0873 107.599 96.9744 107.591 96.8605 107.567C96.5199 106.821 96.2205 106.32 95.9622 106.066C95.7199 105.81 95.3992 105.696 95.0002 105.724C94.6012 105.752 94.3029 105.845 94.1054 106.003C93.9239 106.16 93.785 106.355 93.6888 106.586C93.4827 107.081 93.4434 108.247 93.5711 110.083C93.5766 110.162 93.5866 110.306 93.6011 110.514C93.6155 110.721 93.6288 110.913 93.641 111.088L95.6627 110.754C96.4608 110.698 96.8725 110.854 96.8981 111.221C96.9147 111.46 96.7343 111.633 96.3568 111.74C95.9793 111.847 95.4958 111.929 94.9063 111.986C94.3329 112.042 93.9372 112.118 93.7193 112.213C93.7184 112.663 93.7435 113.254 93.7946 113.989C93.8445 114.707 93.9643 115.853 94.154 117.428C94.3426 118.986 94.4657 120.181 94.5234 121.011C94.5812 121.841 94.5344 122.437 94.3833 122.801C94.2481 123.163 93.9171 123.363 93.3904 123.4ZM109.535 111.996C109.455 110.847 109.782 110.247 110.517 110.195C110.66 110.185 110.805 110.191 110.951 110.213C110.964 110.405 111 110.923 111.059 111.769C111.118 112.615 111.347 114.299 111.747 116.822C112.147 119.344 112.391 121.235 112.479 122.496C112.619 124.507 112.364 125.921 111.715 126.736C111.066 127.551 109.895 128.018 108.204 128.137C106.528 128.254 104.91 127.822 103.35 126.84C103.613 126.469 103.976 126.267 104.439 126.235C104.615 126.239 104.903 126.339 105.302 126.535C106.481 127.126 107.446 127.396 108.197 127.343C109.314 127.265 110.079 126.859 110.494 126.124C110.908 125.389 111.057 124.192 110.941 122.532C110.914 122.133 110.774 120.699 110.522 118.231C110.509 118.28 110.468 118.491 110.398 118.865C110.326 119.223 110.271 119.459 110.231 119.574C110.19 119.689 110.117 119.903 110.01 120.215C109.92 120.526 109.815 120.75 109.696 120.887C109.578 121.023 109.42 121.187 109.225 121.377C108.896 121.721 108.46 121.912 107.918 121.95C107.391 121.986 106.963 121.944 106.634 121.823C106.305 121.702 106.018 121.497 105.773 121.209C105.545 120.921 105.331 120.615 105.132 120.292C104.949 119.968 104.792 119.554 104.661 119.05C104.528 118.53 104.415 118.057 104.321 117.63C104.244 117.203 104.167 116.679 104.092 116.058C104.033 115.437 103.981 114.919 103.936 114.505C103.907 114.09 103.87 113.564 103.826 112.925L103.726 111.489C103.867 111.206 104.145 111.05 104.56 111.021C105.134 110.981 105.436 111.169 105.465 111.584L105.483 113.916C105.624 115.943 105.961 117.676 106.494 119.114C107.027 120.552 107.525 121.255 107.988 121.223C108.339 121.198 108.637 120.985 108.881 120.583C109.126 120.181 109.296 119.632 109.392 118.935C109.487 118.223 109.561 117.552 109.613 116.923C109.666 116.294 109.679 115.563 109.653 114.731C109.613 113.466 109.574 112.555 109.535 111.996ZM115.227 111.718C115.954 110.416 117.084 109.711 118.616 109.604C120.149 109.497 121.413 110.034 122.409 111.215C123.422 112.395 123.983 113.783 124.094 115.38C124.204 116.96 123.795 118.336 122.866 119.508C121.937 120.679 120.698 121.319 119.15 121.428C117.602 121.536 116.446 121.184 115.684 120.371C114.921 119.542 114.484 118.338 114.374 116.758C114.231 114.699 114.515 113.019 115.227 111.718ZM116.368 112.913C116.204 113.55 116.088 114.184 116.02 114.814C115.967 115.443 115.96 116.029 115.997 116.572C116.034 117.099 116.108 117.583 116.219 118.024C116.328 118.45 116.494 118.871 116.716 119.289C116.936 119.69 117.247 120.005 117.647 120.234C118.047 120.446 118.51 120.534 119.037 120.497C120.106 120.422 120.97 119.921 121.627 118.993C122.3 118.063 122.593 116.976 122.507 115.731C122.42 114.486 122.001 113.305 121.25 112.186C120.513 111.051 119.666 110.517 118.709 110.584C118.134 110.624 117.645 110.859 117.242 111.288C116.839 111.717 116.548 112.259 116.368 112.913ZM128.023 109.523C127.662 110.334 127.536 111.514 127.644 113.062C127.806 115.392 128.374 117.221 129.348 118.548C129.916 119.327 130.55 119.691 131.253 119.642C131.971 119.592 132.519 119.176 132.898 118.396C133.345 117.435 133.511 116.14 133.398 114.512C133.256 112.469 132.864 110.98 132.221 110.047C131.934 109.602 131.759 109.277 131.697 109.073C131.65 108.868 131.696 108.712 131.833 108.607C131.97 108.501 132.206 108.436 132.541 108.413C133.514 108.344 134.223 109.305 134.666 111.295C134.801 111.847 134.887 112.402 134.926 112.961C135.027 114.414 134.841 115.886 134.367 117.379C133.692 119.431 132.476 120.519 130.721 120.642C129.795 120.706 128.981 120.419 128.279 119.778C126.959 118.555 126.207 116.627 126.024 113.993C125.944 112.844 125.963 111.961 126.081 111.343C126.198 110.725 126.306 110.325 126.406 110.141C126.504 109.942 126.628 109.757 126.776 109.586C126.925 109.415 127.096 109.339 127.29 109.358C127.499 109.375 127.744 109.43 128.023 109.523ZM139.989 117.611L140.156 118.971C140.18 119.322 140.094 119.576 139.896 119.735C139.713 119.876 139.518 119.953 139.311 119.968C139.119 119.981 138.918 119.963 138.706 119.914C138.226 118.087 137.794 115.8 137.411 113.052C137.043 110.303 136.83 108.746 136.773 108.381C136.997 108.141 137.237 108.012 137.492 107.994C137.763 107.975 138.005 107.99 138.217 108.039C138.313 108.498 138.432 109.516 138.574 111.094C138.715 112.672 138.824 113.659 138.9 114.054C139.03 112.698 139.342 111.417 139.835 110.212C140.109 109.535 140.488 108.987 140.972 108.568C141.471 108.132 142.016 107.894 142.606 107.852C143.213 107.81 143.782 108.043 144.315 108.551C144.862 109.042 145.151 109.503 145.181 109.933C145.192 110.093 145.105 110.227 144.92 110.337C144.734 110.43 144.522 110.485 144.282 110.502C144.059 110.517 143.877 110.442 143.737 110.275C143.597 110.109 143.496 109.923 143.434 109.719C143.37 109.499 143.253 109.307 143.081 109.142C142.909 108.978 142.688 108.905 142.416 108.924C141.698 108.974 141.129 109.664 140.708 110.993C140.06 112.979 139.82 115.185 139.989 117.611ZM152.545 114.109L152.015 103.368C151.957 102.538 151.87 101.975 151.753 101.678C152.022 101.403 152.452 101.244 153.043 101.203C153.401 102.894 153.673 105.08 153.86 107.762C153.915 108.56 153.972 110.417 154.031 113.332C154.5 109.241 155.7 107.128 157.632 106.993C158.318 106.945 158.87 107.275 159.288 107.983C159.721 108.675 160.022 109.536 160.19 110.567C160.358 111.598 160.509 112.629 160.645 113.662C160.978 116.141 161.512 117.355 162.246 117.304C162.262 117.302 162.41 117.244 162.691 117.128C163.316 116.892 163.672 116.819 163.758 116.909C163.77 117.085 163.539 117.325 163.063 117.631C162.586 117.921 162.14 118.081 161.725 118.11C161.022 118.159 160.455 117.838 160.022 117.147C159.604 116.438 159.31 115.568 159.143 114.538C158.991 113.506 158.855 112.481 158.736 111.462C158.632 110.427 158.467 109.557 158.242 108.851C158.015 108.129 157.694 107.782 157.279 107.811C156.769 107.847 156.337 108.439 155.983 109.586C155.645 110.717 155.403 111.96 155.257 113.318C155.11 114.676 154.901 115.925 154.627 117.067C154.369 118.192 154.064 118.767 153.713 118.791C153.154 118.83 152.765 117.27 152.545 114.109ZM165.319 113.311C165.309 113.633 165.308 113.849 165.316 113.961C165.383 114.919 165.722 115.641 166.333 116.127C166.96 116.613 167.673 116.827 168.471 116.771C169.269 116.716 169.907 116.559 170.387 116.301C170.882 116.041 171.232 115.776 171.438 115.505C171.963 114.747 172.464 114.351 172.943 114.317C173.119 114.305 173.33 114.338 173.576 114.417C173.471 115.21 172.914 115.971 171.906 116.699C170.913 117.41 169.626 117.821 168.046 117.932C166.929 118.01 165.939 117.727 165.076 117.081C164.228 116.419 163.761 115.473 163.676 114.244C163.59 113.015 163.747 111.809 164.146 110.627C164.56 109.427 165.193 108.388 166.046 107.51C166.914 106.615 167.819 106.135 168.761 106.069C169.719 106.002 170.499 106.148 171.101 106.507C171.718 106.848 172.053 107.394 172.105 108.145C172.202 109.533 171.659 110.726 170.477 111.723C169.311 112.703 168.033 113.241 166.644 113.339C166.277 113.364 165.835 113.355 165.319 113.311ZM167.084 112.394C167.834 112.341 168.488 112.055 169.045 111.535C169.602 111.014 169.982 110.483 170.185 109.939C170.404 109.394 170.498 108.907 170.468 108.476C170.438 108.045 170.244 107.681 169.887 107.386C169.529 107.074 169.126 106.934 168.679 106.965C167.881 107.021 167.177 107.624 166.567 108.773C165.974 109.921 165.574 111.096 165.369 112.297C166.081 112.392 166.653 112.424 167.084 112.394ZM182.838 110.04L182.91 112.801C183.006 114.19 183.231 115.112 183.583 115.569C183.797 115.875 184.072 116.016 184.407 115.993C184.503 115.986 184.637 115.952 184.809 115.892C185.137 115.773 185.42 115.801 185.657 115.977C185.584 116.544 185.045 116.862 184.039 116.932C183.353 116.981 182.878 116.725 182.615 116.166C182.409 115.747 182.244 115.222 182.12 114.589C181.995 113.94 181.9 113.498 181.835 113.261C180.935 115.313 180.014 116.589 179.07 117.088C178.591 117.346 178.024 117.498 177.37 117.544C176.715 117.59 176.183 117.314 175.772 116.717C175.377 116.103 175.137 115.19 175.052 113.977C174.968 112.764 175.079 111.481 175.386 110.128C175.692 108.76 176.196 107.593 176.899 106.63C177.601 105.651 178.407 105.129 179.317 105.065C180.625 104.974 181.533 105.456 182.039 106.511C182.471 107.411 182.737 108.587 182.838 110.04ZM176.919 109.684C176.756 110.562 176.645 111.395 176.588 112.185C176.529 112.959 176.521 113.65 176.563 114.256C176.605 114.847 176.76 115.349 177.029 115.763C177.315 116.176 177.657 116.369 178.056 116.341C178.918 116.281 179.691 115.408 180.376 113.725C181.061 112.041 181.354 110.496 181.257 109.092C181.193 108.182 180.902 107.448 180.382 106.891C180.036 106.531 179.6 106.369 179.073 106.406C178.562 106.441 178.112 106.778 177.724 107.414C177.35 108.034 177.082 108.791 176.919 109.684ZM186.302 102.339C186.192 100.759 185.902 99.7123 185.434 99.1998C185.62 98.882 185.969 98.7052 186.479 98.6694C186.575 98.6627 186.679 98.6635 186.792 98.6716C187.219 99.0427 187.499 100.186 187.632 102.101C187.704 103.139 187.74 104.347 187.74 105.727C187.715 108.134 187.741 109.897 187.819 111.014C188.029 114.031 188.716 115.498 189.881 115.417C189.881 115.417 190.173 115.34 190.756 115.187C190.899 115.177 191.023 115.233 191.128 115.354C191.12 115.931 190.669 116.252 189.775 116.314C188.897 116.376 188.201 116.16 187.685 115.667C187.169 115.158 186.819 114.508 186.636 113.719C186.467 112.913 186.365 112.247 186.328 111.72C186.292 111.193 186.26 110.618 186.232 109.994C186.204 109.355 186.213 108.44 186.258 107.25C186.347 104.838 186.361 103.201 186.302 102.339ZM191.538 106.279C190.82 106.329 190.321 106.187 190.041 105.854C190.023 105.599 190.113 105.392 190.311 105.234C190.524 105.075 190.758 104.97 191.011 104.92C191.263 104.854 191.675 104.786 192.247 104.713C192.265 104.279 192.251 103.727 192.204 103.056C192.173 102.369 192.148 101.785 192.131 101.305C192.091 100.041 192.229 99.2533 192.544 98.9426C192.678 98.8048 192.826 98.7303 192.985 98.7192C193.161 98.7069 193.314 98.7122 193.444 98.7352C193.571 99.8811 193.644 100.574 193.66 100.813L193.766 104.415C193.799 104.428 193.888 104.43 194.031 104.42L195.75 104.228C196.995 104.14 197.631 104.288 197.657 104.671C197.695 105.214 197.494 105.549 197.054 105.676C196.85 105.738 196.604 105.78 196.316 105.8C196.045 105.819 195.684 105.812 195.232 105.779C194.796 105.73 194.482 105.712 194.29 105.725C194.099 105.739 193.972 105.755 193.909 105.776C193.893 106.242 193.902 106.707 193.934 107.17C193.965 107.616 194.012 108.183 194.076 108.868C194.154 109.536 194.274 110.338 194.436 111.273C194.613 112.206 194.901 113.004 195.3 113.666C195.697 114.312 196.168 114.616 196.71 114.578C196.982 114.559 197.294 114.433 197.646 114.199C197.998 113.95 198.269 113.819 198.461 113.806C198.668 113.791 198.847 113.827 198.998 113.912C199.163 113.981 199.249 114.071 199.257 114.183C199.28 114.518 198.96 114.869 198.296 115.237C197.647 115.587 197.083 115.779 196.604 115.812C194.848 115.935 193.639 114.352 192.977 111.062C192.783 110.113 192.573 108.476 192.347 106.15C192.095 106.216 191.825 106.259 191.538 106.279ZM200.591 110.745L200.061 100.004C200.003 99.1741 199.916 98.6108 199.799 98.3143C200.069 98.0388 200.499 97.8803 201.089 97.839C201.447 99.5301 201.72 101.716 201.906 104.398C201.962 105.196 202.019 107.053 202.077 109.968C202.546 105.877 203.747 103.764 205.678 103.629C206.364 103.581 206.917 103.911 207.335 104.619C207.768 105.311 208.068 106.172 208.236 107.203C208.404 108.233 208.556 109.265 208.692 110.298C209.025 112.777 209.558 113.991 210.292 113.94C210.308 113.938 210.457 113.88 210.737 113.764C211.362 113.528 211.718 113.455 211.805 113.545C211.817 113.72 211.585 113.961 211.109 114.267C210.632 114.557 210.186 114.717 209.771 114.746C209.069 114.795 208.501 114.474 208.068 113.782C207.65 113.074 207.357 112.204 207.189 111.174C207.037 110.142 206.902 109.117 206.783 108.098C206.679 107.063 206.514 106.193 206.288 105.487C206.062 104.765 205.741 104.418 205.326 104.447C204.815 104.483 204.383 105.075 204.03 106.222C203.692 107.352 203.449 108.596 203.303 109.954C203.157 111.311 202.947 112.561 202.674 113.703C202.415 114.828 202.11 115.403 201.759 115.427C201.2 115.466 200.811 113.906 200.591 110.745ZM217.678 100.142C217.568 98.5618 217.279 97.5154 216.81 97.0029C216.996 96.6851 217.345 96.5083 217.856 96.4726C217.952 96.4659 218.056 96.4666 218.169 96.4747C218.595 96.8458 218.875 97.9891 219.009 99.9044C219.081 100.942 219.117 102.15 219.116 103.53C219.091 105.937 219.118 107.7 219.195 108.817C219.405 111.834 220.093 113.301 221.258 113.22C221.258 113.22 221.549 113.143 222.132 112.99C222.275 112.98 222.4 113.036 222.504 113.157C222.496 113.735 222.045 114.055 221.152 114.117C220.274 114.179 219.577 113.963 219.062 113.47C218.545 112.961 218.195 112.312 218.012 111.522C217.844 110.716 217.741 110.05 217.705 109.523C217.668 108.996 217.636 108.421 217.609 107.797C217.58 107.158 217.589 106.243 217.634 105.053C217.723 102.641 217.738 101.004 217.678 100.142ZM224.063 96.3748C224.072 96.743 224.093 97.1506 224.124 97.5975C224.155 98.0445 224.211 98.5057 224.292 98.9812C224.086 99.2522 223.792 99.4011 223.409 99.4279C222.93 99.4615 222.664 99.0951 222.611 98.329C222.608 98.2971 222.6 98.1774 222.586 97.9699C222.571 97.7624 222.559 97.5788 222.547 97.4192C222.551 97.2425 222.569 97.0407 222.602 96.8139C222.687 96.423 222.921 96.2142 223.304 96.1874C223.687 96.1605 223.94 96.223 224.063 96.3748ZM223.346 108.214C223.129 105.085 223.163 103.271 223.449 102.769C223.548 102.586 223.678 102.489 223.837 102.477C223.997 102.466 224.267 102.536 224.646 102.685C224.66 104.048 224.723 105.527 224.834 107.123C224.834 107.123 224.973 108.886 225.25 112.411C225.284 112.906 225.197 113.265 224.988 113.488C224.794 113.694 224.601 113.804 224.409 113.817C224.234 113.829 224.047 113.794 223.849 113.712C223.625 111.643 223.457 109.81 223.346 108.214ZM229.085 95.8788C229.179 96.995 229.245 97.8324 229.284 98.3911C229.322 98.9338 229.351 99.477 229.373 100.021C229.411 100.563 229.46 101.619 229.521 103.186C229.581 104.738 229.634 105.969 229.682 106.88C230.259 106.423 230.941 105.733 231.727 104.812C232.512 103.875 233.226 103.071 233.869 102.401C234.887 101.351 235.64 101.001 236.13 101.352C236.315 101.483 236.381 101.615 236.326 101.747C236.189 102.094 235.85 102.527 235.309 103.046C234.784 103.564 234.159 104.153 233.435 104.813C232.711 105.473 232.144 106.074 231.732 106.616C232.908 106.694 233.888 107.283 234.67 108.383C235.01 108.889 235.342 109.395 235.666 109.901C236.496 111.239 237.36 112.125 238.256 112.559C237.959 112.901 237.603 113.086 237.188 113.115C236.773 113.144 236.344 112.974 235.902 112.604C235.475 112.232 235.09 111.77 234.747 111.217C234.419 110.662 234.084 110.108 233.741 109.555C232.958 108.214 232.112 107.576 231.202 107.64C230.771 107.67 230.414 107.839 230.131 108.148C229.846 108.44 229.715 108.738 229.736 109.042C229.869 110.957 229.936 112.38 229.936 113.31C229.734 113.629 229.505 113.797 229.25 113.815C229.17 113.821 229.081 113.811 228.983 113.786C228.622 113.667 228.426 113.384 228.395 112.937C228.38 112.489 228.333 111.129 228.255 108.856C228.028 103.05 227.858 99.341 227.746 97.7288C227.694 96.9787 227.731 96.4708 227.857 96.2054C227.999 95.9388 228.173 95.7983 228.381 95.7838C228.604 95.7681 228.839 95.7998 229.085 95.8788ZM240.159 108.071C240.15 108.393 240.149 108.609 240.156 108.721C240.223 109.679 240.562 110.401 241.173 110.887C241.8 111.373 242.513 111.587 243.311 111.531C244.109 111.476 244.748 111.319 245.227 111.06C245.722 110.801 246.073 110.536 246.278 110.265C246.803 109.507 247.305 109.111 247.783 109.077C247.959 109.065 248.17 109.098 248.416 109.177C248.311 109.97 247.754 110.731 246.746 111.459C245.753 112.17 244.467 112.581 242.886 112.692C241.769 112.77 240.779 112.487 239.916 111.841C239.068 111.179 238.602 110.233 238.516 109.004C238.431 107.775 238.587 106.569 238.986 105.386C239.4 104.187 240.034 103.148 240.887 102.27C241.755 101.375 242.66 100.895 243.601 100.829C244.559 100.762 245.339 100.908 245.941 101.267C246.558 101.608 246.893 102.154 246.945 102.905C247.042 104.293 246.499 105.486 245.318 106.483C244.151 107.463 242.873 108.001 241.484 108.099C241.117 108.124 240.676 108.115 240.159 108.071ZM241.924 107.154C242.674 107.101 243.328 106.815 243.885 106.295C244.442 105.774 244.822 105.242 245.025 104.699C245.244 104.154 245.338 103.667 245.308 103.236C245.278 102.805 245.085 102.441 244.727 102.146C244.369 101.834 243.966 101.694 243.519 101.725C242.721 101.781 242.017 102.383 241.408 103.533C240.814 104.681 240.414 105.856 240.209 107.057C240.921 107.152 241.493 107.184 241.924 107.154ZM17.3246 157.957C17.0584 158.28 16.7417 158.455 16.3746 158.481C15.6883 158.529 15.152 158.197 14.7658 157.487C14.3796 156.776 14.1179 155.896 13.9808 154.847C13.8597 153.797 13.7545 152.746 13.6653 151.693C13.5761 150.641 13.4261 149.753 13.2155 149.03C13.0208 148.306 12.7159 147.958 12.301 147.988C11.7423 148.027 11.2985 148.563 10.9694 149.596C10.6562 150.629 10.4626 151.765 10.3884 153.005C10.1801 156.468 9.88293 158.422 9.49681 158.866C9.2195 159.03 8.9771 159.119 8.76961 159.133C8.56211 159.148 8.38488 159.136 8.2379 159.098C7.80061 157.653 7.40922 155.139 7.06374 151.554C6.90751 149.769 6.79512 148.614 6.72657 148.089C7.04621 147.842 7.32574 147.71 7.56515 147.694C7.80457 147.677 7.99776 147.687 8.14474 147.725C8.27227 148.406 8.40984 149.808 8.55746 151.931C8.72103 154.052 8.8219 155.272 8.86006 155.59C8.91655 155.25 8.97458 154.7 9.03415 153.942C9.10967 153.183 9.17867 152.561 9.24113 152.075C9.30249 151.574 9.41417 150.988 9.57615 150.32C9.73814 149.651 9.9335 149.116 10.1622 148.715C10.3899 148.298 10.7177 147.938 11.1457 147.635C11.5727 147.317 12.0654 147.138 12.6241 147.099C13.3742 147.046 13.9408 147.351 14.3237 148.014C14.7214 148.66 14.9712 149.485 15.0731 150.488C15.1749 151.491 15.2619 152.512 15.3341 153.549C15.4222 154.586 15.6159 155.526 15.9152 156.372C16.2305 157.216 16.7003 157.744 17.3246 157.957ZM19.8006 153.573C19.7908 153.895 19.7899 154.111 19.7976 154.223C19.8642 155.181 20.2031 155.903 20.8143 156.389C21.4415 156.875 22.1541 157.09 22.9522 157.034C23.7502 156.978 24.3889 156.821 24.8681 156.563C25.3633 156.303 25.7138 156.038 25.9195 155.767C26.4441 155.009 26.9459 154.613 27.4247 154.579C27.6003 154.567 27.8111 154.6 28.0572 154.679C27.9519 155.473 27.3954 156.233 26.3875 156.962C25.3944 157.673 24.1078 158.084 22.5277 158.194C21.4104 158.272 20.4203 157.989 19.5575 157.344C18.7095 156.681 18.2428 155.735 18.1573 154.506C18.0719 153.277 18.2286 152.071 18.6275 150.889C19.0413 149.689 19.6747 148.65 20.5279 147.772C21.3959 146.878 22.3008 146.397 23.2425 146.331C24.2001 146.264 24.9801 146.41 25.5825 146.769C26.1997 147.111 26.5343 147.657 26.5865 148.407C26.6831 149.795 26.1405 150.988 24.9588 151.985C23.792 152.965 22.5143 153.504 21.1257 153.601C20.7586 153.627 20.3169 153.617 19.8006 153.573ZM21.5652 152.656C22.3153 152.603 22.969 152.317 23.5263 151.797C24.0835 151.277 24.4636 150.745 24.6664 150.201C24.8851 149.657 24.9795 149.169 24.9495 148.738C24.9196 148.307 24.7259 147.944 24.3685 147.648C24.01 147.336 23.6073 147.196 23.1604 147.227C22.3624 147.283 21.6585 147.886 21.0488 149.035C20.455 150.183 20.0555 151.358 19.8503 152.559C20.5626 152.654 21.1342 152.686 21.5652 152.656ZM28.3075 146.289C28.4301 145.976 28.7308 145.803 29.2096 145.769C29.4171 145.755 29.596 145.79 29.7463 145.876C30.2787 147.074 30.8036 148.28 31.3211 149.495C32.2938 151.72 33.1774 153.471 33.9718 154.746C34.1716 152.776 34.6815 150.767 35.5015 148.721C36.3375 146.673 37.1545 145.622 37.9526 145.566C38.192 145.549 38.4353 145.588 38.6825 145.683C37.0146 148.222 35.9198 151.506 35.3981 155.537C35.3028 156.474 35.1639 157.013 34.9812 157.154C34.7837 157.312 34.5733 157.399 34.3498 157.415C34.1263 157.43 33.9474 157.395 33.8131 157.308C33.6947 157.22 33.6003 157.13 33.5298 157.039C33.4752 156.946 33.3923 156.792 33.281 156.575C33.1857 156.357 33.1113 156.21 33.0578 156.134C31.2178 153.199 29.6344 149.918 28.3075 146.289ZM41.4039 152.061C41.3942 152.382 41.3932 152.599 41.401 152.711C41.4676 153.668 41.8065 154.39 42.4177 154.877C43.0449 155.362 43.7575 155.577 44.5555 155.521C45.3536 155.465 45.9922 155.308 46.4715 155.05C46.9667 154.791 47.3171 154.526 47.5228 154.255C48.0475 153.496 48.5492 153.1 49.0281 153.067C49.2036 153.054 49.4145 153.088 49.6605 153.167C49.5553 153.96 48.9987 154.721 47.9908 155.449C46.9977 156.16 45.7111 156.571 44.131 156.682C43.0138 156.76 42.0237 156.476 41.1609 155.831C40.3129 155.169 39.8461 154.223 39.7607 152.994C39.6752 151.765 39.8319 150.559 40.2309 149.376C40.6446 148.176 41.2781 147.138 42.1313 146.26C42.9993 145.365 43.9041 144.885 44.8458 144.819C45.8035 144.752 46.5835 144.897 47.1858 145.256C47.803 145.598 48.1377 146.144 48.1899 146.894C48.2864 148.283 47.7439 149.476 46.5622 150.473C45.3953 151.452 44.1176 151.991 42.729 152.088C42.3619 152.114 41.9202 152.105 41.4039 152.061ZM43.1685 151.143C43.9187 151.091 44.5724 150.804 45.1297 150.284C45.6869 149.764 46.0669 149.232 46.2697 148.689C46.4885 148.144 46.5829 147.656 46.5529 147.225C46.5229 146.794 46.3293 146.431 45.9719 146.135C45.6134 145.824 45.2107 145.683 44.7638 145.715C43.9657 145.77 43.2619 146.373 42.6521 147.522C42.0583 148.671 41.6589 149.846 41.4537 151.047C42.166 151.141 42.7376 151.173 43.1685 151.143ZM54.02 153.704L54.1867 155.063C54.2111 155.414 54.1246 155.669 53.9271 155.827C53.7445 155.968 53.5494 156.046 53.3419 156.061C53.1504 156.074 52.9486 156.056 52.7367 156.007C52.2568 154.18 51.8251 151.892 51.4416 149.145C51.074 146.396 50.8615 144.839 50.804 144.474C51.0279 144.233 51.2675 144.104 51.5229 144.087C51.7942 144.068 52.0359 144.083 52.2478 144.132C52.3438 144.59 52.4627 145.609 52.6045 147.187C52.7463 148.764 52.855 149.751 52.9307 150.147C53.0609 148.791 53.3728 147.51 53.8664 146.304C54.1401 145.627 54.519 145.08 55.0031 144.661C55.5021 144.225 56.0468 143.986 56.6374 143.945C57.2439 143.902 57.8134 144.135 58.3459 144.643C58.8933 145.134 59.182 145.595 59.212 146.026C59.2231 146.186 59.1362 146.32 58.9513 146.429C58.7653 146.523 58.5526 146.578 58.3132 146.594C58.0898 146.61 57.9081 146.535 57.7682 146.368C57.6283 146.201 57.5272 146.016 57.4649 145.812C57.4014 145.592 57.2838 145.399 57.112 145.235C56.9402 145.071 56.7186 144.998 56.4473 145.017C55.729 145.067 55.1595 145.757 54.7386 147.085C54.0909 149.071 53.8513 151.277 54.02 153.704ZM65.8672 137.934C66.0343 137.569 66.3732 137.369 66.884 137.333C66.9957 137.325 67.1085 137.333 67.2225 137.358C67.3132 138.201 67.4935 140.562 67.7632 144.441C67.778 144.424 67.8448 144.347 67.9636 144.211C68.0984 144.073 68.1807 143.987 68.2104 143.953C68.2401 143.918 68.3149 143.841 68.4348 143.72C68.5536 143.584 68.6438 143.497 68.7054 143.461C68.7819 143.407 68.8812 143.336 69.0034 143.248C69.1244 143.143 69.2317 143.071 69.3252 143.033C69.4177 142.978 69.526 142.922 69.6504 142.865C69.8843 142.769 70.1608 142.709 70.48 142.687C71.6611 142.604 72.6452 143.033 73.4323 143.972C74.2182 144.895 74.6534 145.964 74.7377 147.177C74.8221 148.39 74.719 149.56 74.4285 150.687C74.1368 151.798 73.6363 152.787 72.9267 153.655C72.2172 154.523 71.3517 154.992 70.3302 155.064C69.3247 155.134 68.4527 154.818 67.7142 154.116C66.9917 153.413 66.5971 152.582 66.5305 151.625C66.4628 150.651 66.3944 148.859 66.3252 146.25C66.2549 143.624 66.1803 141.745 66.1015 140.612C66.0216 139.463 65.9435 138.57 65.8672 137.934ZM70.4162 153.879C71.0387 153.835 71.5768 153.501 72.0305 152.876C72.955 151.64 73.3429 149.953 73.1942 147.814C73.1143 146.665 72.8204 145.667 72.3124 144.82C71.8034 143.958 71.1418 143.555 70.3278 143.612C69.865 143.644 69.474 143.904 69.1551 144.392C68.835 144.863 68.6053 145.481 68.4659 146.244C68.1976 147.691 68.124 149.284 68.2449 151.023C68.347 152.492 68.713 153.373 69.3428 153.665C69.6253 153.806 69.9831 153.877 70.4162 153.879ZM78.485 149.464C78.4753 149.786 78.4743 150.003 78.4821 150.114C78.5487 151.072 78.8876 151.794 79.4988 152.281C80.126 152.766 80.8386 152.981 81.6366 152.925C82.4347 152.869 83.0733 152.712 83.5526 152.454C84.0478 152.195 84.3982 151.929 84.6039 151.658C85.1286 150.9 85.6303 150.504 86.1092 150.47C86.2847 150.458 86.4955 150.491 86.7416 150.57C86.6364 151.364 86.0798 152.124 85.0719 152.853C84.0788 153.564 82.7922 153.975 81.2121 154.085C80.0948 154.163 79.1048 153.88 78.242 153.235C77.394 152.572 76.9272 151.627 76.8418 150.398C76.7563 149.168 76.913 147.963 77.312 146.78C77.7257 145.58 78.3592 144.541 79.2124 143.663C80.0804 142.769 80.9852 142.288 81.9269 142.222C82.8846 142.155 83.6646 142.301 84.2669 142.66C84.8841 143.002 85.2188 143.548 85.271 144.298C85.3675 145.687 84.825 146.879 83.6433 147.876C82.4764 148.856 81.1987 149.395 79.8101 149.492C79.443 149.518 79.0013 149.509 78.485 149.464ZM80.2496 148.547C80.9998 148.494 81.6535 148.208 82.2107 147.688C82.768 147.168 83.148 146.636 83.3508 146.092C83.5696 145.548 83.664 145.06 83.634 144.629C83.604 144.198 83.4104 143.835 83.053 143.539C82.6945 143.227 82.2918 143.087 81.8449 143.118C81.0468 143.174 80.3429 143.777 79.7332 144.926C79.1394 146.074 78.74 147.249 78.5348 148.451C79.2471 148.545 79.8187 148.577 80.2496 148.547ZM90.6317 153.666C90.3444 153.686 90.0326 151.278 89.6964 146.442C89.5543 144.399 89.4603 143.162 89.4144 142.733L88.9355 142.766C88.7121 142.782 88.5365 142.794 88.4088 142.803C88.28 142.796 88.1119 142.8 87.9044 142.814C87.7118 142.812 87.5505 142.799 87.4206 142.776C87.3066 142.752 87.1841 142.72 87.0531 142.681C86.8071 142.602 86.6757 142.443 86.659 142.204C86.638 141.901 87.1222 141.714 88.1118 141.645C88.5427 141.615 88.9349 141.603 89.2882 141.611C89.282 141.29 89.2617 140.883 89.2273 140.388C89.2077 139.876 89.1965 139.484 89.1936 139.211C89.1896 138.923 89.1817 138.579 89.1699 138.179C89.174 137.777 89.1923 137.463 89.2247 137.236C89.273 137.009 89.3356 136.756 89.4125 136.478C89.4882 136.183 89.6009 135.959 89.7506 135.804C89.9002 135.649 90.0738 135.493 90.2713 135.335C90.6195 135.038 91.2166 134.86 92.0625 134.8C92.9244 134.74 93.5698 134.911 93.9988 135.314C94.4427 135.7 94.8591 136.385 95.2483 137.368C95.0289 137.672 94.7595 137.835 94.4403 137.858C94.3286 137.866 94.2157 137.857 94.1018 137.833C93.7612 137.087 93.4618 136.587 93.2035 136.332C92.9612 136.077 92.6405 135.963 92.2415 135.991C91.8425 136.019 91.5442 136.112 91.3467 136.27C91.1652 136.427 91.0263 136.621 90.9301 136.852C90.724 137.348 90.6848 138.514 90.8124 140.349C90.8179 140.429 90.8279 140.573 90.8424 140.78C90.8568 140.988 90.8701 141.179 90.8823 141.355L92.904 141.021C93.7021 140.965 94.1139 141.12 94.1394 141.488C94.156 141.727 93.9756 141.9 93.5981 142.007C93.2206 142.113 92.7371 142.195 92.1476 142.253C91.5742 142.309 91.1785 142.385 90.9606 142.48C90.9597 142.929 90.9848 143.521 91.0359 144.255C91.0858 144.973 91.2056 146.12 91.3953 147.694C91.5839 149.253 91.707 150.447 91.7648 151.277C91.8225 152.107 91.7757 152.704 91.6246 153.068C91.4894 153.43 91.1585 153.629 90.6317 153.666ZM96.1019 143.131C96.8294 141.829 97.9592 141.124 99.4915 141.017C101.024 140.909 102.288 141.446 103.284 142.628C104.297 143.808 104.858 145.196 104.969 146.792C105.079 148.372 104.67 149.748 103.741 150.92C102.812 152.092 101.573 152.732 100.025 152.84C98.4767 152.949 97.3215 152.596 96.5593 151.784C95.796 150.955 95.3594 149.751 95.2495 148.17C95.1063 146.111 95.3905 144.431 96.1019 143.131ZM97.2436 144.326C97.0794 144.963 96.9631 145.596 96.8946 146.227C96.8422 146.856 96.8348 147.442 96.8725 147.985C96.9091 148.511 96.9829 148.995 97.0938 149.437C97.2035 149.862 97.3692 150.283 97.5907 150.701C97.8111 151.103 98.1217 151.418 98.5225 151.646C98.9222 151.859 99.3854 151.947 99.9121 151.91C100.982 151.835 101.845 151.333 102.502 150.405C103.175 149.476 103.468 148.389 103.382 147.144C103.295 145.899 102.876 144.717 102.125 143.599C101.388 142.464 100.541 141.93 99.5837 141.997C99.0091 142.037 98.5202 142.272 98.117 142.701C97.7138 143.13 97.4227 143.672 97.2436 144.326ZM109.899 149.791L110.066 151.151C110.09 151.502 110.003 151.757 109.806 151.915C109.623 152.056 109.428 152.134 109.221 152.148C109.029 152.162 108.827 152.144 108.616 152.094C108.136 150.267 107.704 147.98 107.32 145.232C106.953 142.483 106.74 140.926 106.683 140.561C106.907 140.321 107.146 140.192 107.402 140.174C107.673 140.155 107.915 140.17 108.127 140.22C108.223 140.678 108.342 141.696 108.483 143.274C108.625 144.852 108.734 145.839 108.81 146.235C108.94 144.878 109.252 143.597 109.745 142.392C110.019 141.715 110.398 141.167 110.882 140.748C111.381 140.312 111.926 140.074 112.516 140.032C113.123 139.99 113.692 140.223 114.225 140.731C114.772 141.222 115.061 141.683 115.091 142.114C115.102 142.273 115.015 142.408 114.83 142.517C114.644 142.61 114.431 142.665 114.192 142.682C113.969 142.698 113.787 142.622 113.647 142.455C113.507 142.289 113.406 142.103 113.344 141.899C113.28 141.679 113.163 141.487 112.991 141.322C112.819 141.158 112.597 141.085 112.326 141.104C111.608 141.155 111.038 141.844 110.617 143.173C109.97 145.159 109.73 147.365 109.899 149.791ZM117.74 146.716C117.731 147.037 117.73 147.254 117.738 147.366C117.804 148.323 118.143 149.045 118.754 149.532C119.381 150.017 120.094 150.232 120.892 150.176C121.69 150.12 122.329 149.963 122.808 149.705C123.303 149.446 123.654 149.181 123.859 148.91C124.384 148.151 124.886 147.755 125.365 147.722C125.54 147.71 125.751 147.743 125.997 147.822C125.892 148.615 125.335 149.376 124.327 150.104C123.334 150.815 122.048 151.226 120.468 151.337C119.35 151.415 118.36 151.131 117.497 150.486C116.649 149.824 116.183 148.878 116.097 147.649C116.012 146.42 116.169 145.214 116.567 144.031C116.981 142.831 117.615 141.793 118.468 140.915C119.336 140.02 120.241 139.54 121.182 139.474C122.14 139.407 122.92 139.553 123.522 139.911C124.14 140.253 124.474 140.799 124.526 141.549C124.623 142.938 124.08 144.131 122.899 145.128C121.732 146.108 120.454 146.646 119.066 146.743C118.698 146.769 118.257 146.76 117.74 146.716ZM119.505 145.798C120.255 145.746 120.909 145.46 121.466 144.939C122.023 144.419 122.403 143.887 122.606 143.344C122.825 142.799 122.919 142.311 122.889 141.88C122.859 141.45 122.666 141.086 122.308 140.79C121.95 140.479 121.547 140.338 121.1 140.37C120.302 140.426 119.598 141.028 118.989 142.178C118.395 143.326 117.995 144.501 117.79 145.702C118.503 145.796 119.074 145.829 119.505 145.798ZM129.444 151.502C129.157 151.522 128.838 151.432 128.487 151.232C128.138 151.048 127.952 150.805 127.931 150.501C127.91 150.198 128.066 149.899 128.398 149.603C128.729 149.291 129.078 149.122 129.446 149.096C129.813 149.07 130.131 149.152 130.401 149.342C130.671 149.532 130.817 149.786 130.839 150.105C130.86 150.409 130.704 150.708 130.372 151.004C130.057 151.315 129.748 151.481 129.444 151.502Z" fill="#2E2E2E"/>
</svg>
