<svg width="79" height="121" viewBox="0 0 79 121" fill="none" xmlns="http://www.w3.org/2000/svg">
<path fill-rule="evenodd" clip-rule="evenodd" d="M0.87581 0.688948C0.257625 1.60533 1.46173 3.71195 5.41482 8.74646C14.7701 20.4784 26.6332 31.4926 38.1962 39.0309L43.4482 42.5098L41.5597 47.2569C37.9783 56.5666 36.0695 68.314 36.1807 80.1929C36.2369 89.8943 38.8827 101.389 42.1937 106.375C42.4932 106.841 40.811 106.056 38.4642 104.693C34.2594 102.197 32.645 101.736 30.963 102.456C28.922 103.306 30.2676 104.749 37.8731 110.026C42.0795 112.959 46.3966 116.358 47.6394 117.776C48.9283 119.184 50.2992 120.525 50.7313 120.719C51.8891 121.331 53.9362 120.723 54.3845 119.699C54.6139 119.21 54.2841 116.032 53.5136 111.978C52.1079 104.037 52.0568 101.233 53.1706 94.1318C53.6485 91.3053 53.9256 88.6645 53.8317 88.2488C53.2786 85.801 49.2812 91.1217 48.2818 95.7219C47.8976 97.4591 47.5941 100.198 47.6267 101.846C47.6687 103.536 47.5453 104.923 47.3605 104.965C47.222 104.996 46.3755 103.828 45.5484 102.316C43.1747 98.0408 41.2816 88.803 41.2492 81.1404C41.1993 73.1852 41.9525 65.7765 43.4243 59.376C44.6366 53.9996 47.6457 45.1644 48.3385 45.0078C48.5232 44.9661 50.2143 45.3607 52.1215 45.8521C53.9825 46.3539 56.4856 46.9049 57.6365 47.0332C67.7687 48.2389 75.8097 43.4123 78.1918 34.8104C78.8962 32.127 78.9482 30.8531 78.4848 27.9427C77.7556 23.6414 76.6739 21.6475 73.9606 19.7363C70.1505 17.0535 64.457 17.6603 59.1647 21.3319C55.6861 23.7684 52.5348 27.2474 48.73 32.9668L45.3584 38.049L41.6362 35.5406C32.8521 29.5588 21.8042 19.574 11.789 8.57373C4.7552 0.88578 3.52887 -0.244926 2.1433 0.0681465C1.58907 0.193376 0.973784 0.478034 0.87697 0.694084L0.87581 0.688948ZM70.9258 23.0865C74.4332 24.4299 76.0932 28.7689 74.826 33.4727C72.6843 41.8261 64.0367 45.0422 53.366 41.477L50.4247 40.4911L51.2707 38.6495C52.5293 35.8408 57.8245 28.9594 60.3794 26.7316C64.3323 23.3627 68.1076 22.0242 70.9207 23.0876L70.9258 23.0865Z" fill="#2E2E2E"/>
</svg>
