<svg width="167" height="69" viewBox="0 0 167 69" fill="none" xmlns="http://www.w3.org/2000/svg">
<path d="M4.31948 15.1485C4.30678 15.5671 4.26395 16.2933 4.19099 17.3271C4.13397 18.3596 4.0933 19.2061 4.06898 19.8665C3.99602 21.8478 4.01358 23.4761 4.12166 24.7515C4.22975 26.0269 4.35405 27.02 4.49456 27.7307C4.64966 28.424 4.84989 29.0815 5.09525 29.703C5.33925 30.3085 5.66014 30.7791 6.0579 31.1147C6.4716 31.449 6.93354 31.5945 7.44371 31.5513C8.17708 31.4891 8.78899 31.0358 9.27944 30.1914C9.78583 29.3456 10.1458 28.2875 10.3592 27.0169C10.5714 25.7304 10.735 24.44 10.8501 23.1456C10.9811 21.8499 11.099 20.5875 11.2035 19.3582C11.3241 18.1277 11.4611 17.2811 11.6145 16.8185C12.0207 16.495 12.3354 16.3238 12.5586 16.3049C12.7818 16.286 12.9512 16.2957 13.0668 16.3341C13.2273 17.0913 13.4412 18.4782 13.7085 20.4948C13.9903 22.4941 14.2662 24.0444 14.5361 25.1455C14.822 26.2453 15.1415 27.1736 15.4947 27.9305C15.8638 28.686 16.3656 29.3019 17.0001 29.778C17.6332 30.2382 18.3324 30.4358 19.0977 30.371C19.8789 30.3048 20.4862 29.892 20.9196 29.1327C21.353 28.3734 21.6307 27.3864 21.7526 26.1718C21.9701 24.0017 21.9829 21.7847 21.7911 19.5208C21.5979 17.241 21.2559 15.4796 20.7652 14.2366C21.1395 13.9158 21.494 13.7412 21.8288 13.7129C22.1636 13.6845 22.4729 13.9232 22.7566 14.4291C23.0403 14.9349 23.2645 15.5904 23.429 16.3953C23.7287 17.8472 23.9292 19.171 24.0305 20.3667C24.1318 21.5624 24.1222 22.7756 24.0017 24.0062C23.8812 25.2367 23.6264 26.3984 23.2373 27.4912C22.8628 28.5666 22.2793 29.451 21.4871 30.1444C20.7094 30.8205 19.7705 31.2052 18.6705 31.2984C17.9357 31.3446 17.2592 31.2253 16.641 30.9405C16.0373 30.6384 15.5405 30.271 15.1506 29.8384C14.7593 29.3898 14.3878 28.7951 14.036 28.0541C13.5282 26.9892 13.0586 25.616 12.627 23.9344C12.156 26.3347 11.7272 28.0009 11.3405 28.9329C10.391 31.1811 8.92842 32.3969 6.95286 32.5804C5.67743 32.6885 4.68168 32.3072 3.9656 31.4366C3.33734 30.6548 2.88797 29.5207 2.61749 28.0343C2.51562 27.4006 2.43023 26.6772 2.36133 25.8641C2.1357 23.2017 2.27838 19.7694 2.78937 15.5672C3.18362 15.2929 3.50031 15.1457 3.73946 15.1254C3.99454 15.1038 4.18788 15.1115 4.31948 15.1485ZM27.7781 12.5584C27.7932 12.9264 27.8197 13.3336 27.8575 13.78C27.8953 14.2264 27.9584 14.6868 28.0468 15.161C27.8452 15.435 27.5531 15.5882 27.1705 15.6206C26.6922 15.6612 26.4206 15.2988 26.3558 14.5335C26.3531 14.5017 26.3429 14.3821 26.3254 14.1748C26.3078 13.9676 26.2923 13.7842 26.2787 13.6248C26.2798 13.4481 26.2948 13.2461 26.3237 13.0188C26.4029 12.6268 26.6338 12.4145 27.0164 12.3821C27.3991 12.3496 27.6529 12.4084 27.7781 12.5584ZM27.2406 24.4061C26.9758 21.2813 26.9825 19.4662 27.2608 18.9609C27.3576 18.7761 27.4857 18.6769 27.6451 18.6634C27.8045 18.6499 28.075 18.7153 28.4566 18.8596C28.4917 20.2215 28.5768 21.6996 28.7119 23.2939C28.7119 23.2939 28.8771 25.0542 29.2076 28.5749C29.2495 29.0691 29.1676 29.4293 28.962 29.6555C28.7709 29.8644 28.5798 29.9769 28.3884 29.9931C28.2131 30.008 28.0257 29.9757 27.8263 29.8962C27.5709 27.8304 27.3757 26.0004 27.2406 24.4061ZM31.534 19.8754C30.8166 19.9362 30.3155 19.802 30.0307 19.4729C30.009 19.2178 30.0958 19.0097 30.2909 18.8487C30.5019 18.6863 30.7336 18.5783 30.986 18.5248C31.237 18.4554 31.6482 18.3804 32.2194 18.2999C32.2308 17.8654 32.2081 17.3133 32.1513 16.6437C32.1092 15.9568 32.0758 15.3735 32.0512 14.8939C31.9923 13.6304 32.1181 12.8409 32.4286 12.5256C32.5613 12.3859 32.7073 12.3093 32.8667 12.2958C33.0421 12.2809 33.1949 12.284 33.3252 12.3051C33.4703 13.4489 33.553 14.1404 33.5732 14.3795L33.7337 17.9788C33.767 17.9921 33.8553 17.9926 33.9988 17.9805L35.7146 17.7628C36.9581 17.6574 37.5961 17.7961 37.6285 18.1787C37.6744 18.7207 37.4783 19.0585 37.04 19.192C36.8368 19.2574 36.5917 19.3022 36.3047 19.3266C36.0337 19.3495 35.6723 19.348 35.2205 19.3221C34.7832 19.2789 34.469 19.2654 34.2777 19.2816C34.0864 19.2978 33.9595 19.3166 33.8971 19.3379C33.8884 19.8043 33.9037 20.2687 33.9429 20.731C33.9807 21.1774 34.0366 21.7427 34.1107 22.4269C34.1993 23.0938 34.3313 23.8935 34.5067 24.826C34.698 25.7572 34.9981 26.5507 35.4069 27.2065C35.8144 27.8464 36.2892 28.1434 36.8312 28.0974C37.1022 28.0745 37.4123 27.9438 37.7614 27.7055C38.1092 27.4512 38.3787 27.316 38.5701 27.2997C38.7773 27.2822 38.9567 27.3152 39.1083 27.3987C39.2745 27.4649 39.3623 27.5538 39.3718 27.6654C39.4002 28.0002 39.0851 28.356 38.4266 28.733C37.7826 29.0926 37.2215 29.2927 36.7433 29.3333C34.9895 29.4819 33.7569 27.9164 33.0455 24.6367C32.8369 23.691 32.602 22.057 32.341 19.7347C32.09 19.8042 31.821 19.851 31.534 19.8754ZM40.6541 24.2087L39.9614 13.4769C39.8911 12.6479 39.7953 12.0859 39.674 11.7911C39.9394 11.5117 40.367 11.347 40.9569 11.297C41.3406 12.9827 41.6459 15.1647 41.8729 17.8431C41.9404 18.6402 42.0254 20.4957 42.1278 23.4094C42.5353 19.3124 43.7036 17.1821 45.6327 17.0187C46.3182 16.9606 46.8754 17.2827 47.3043 17.985C47.7477 18.67 48.0611 19.5265 48.2446 20.5547C48.4281 21.5829 48.5956 22.6124 48.7472 23.6433C49.1174 26.1169 49.6692 27.3226 50.4026 27.2605C50.4185 27.2591 50.5659 27.1984 50.8448 27.0785C51.4663 26.8331 51.8209 26.7549 51.9088 26.8438C51.9236 27.0192 51.6954 27.2633 51.2242 27.5762C50.7516 27.8732 50.308 28.0392 49.8935 28.0744C49.192 28.1338 48.6195 27.821 48.1761 27.136C47.7473 26.4337 47.4411 25.5685 47.2576 24.5403C47.0901 23.5108 46.9392 22.4879 46.8049 21.4716C46.6852 20.438 46.5073 19.5699 46.2711 18.8673C46.0336 18.1488 45.7075 17.8071 45.293 17.8423C44.7829 17.8855 44.3598 18.4834 44.024 19.6358C43.7027 20.771 43.4792 22.0184 43.3535 23.3778C43.2279 24.7373 43.037 25.9899 42.7808 27.1356C42.5392 28.264 42.2431 28.8431 41.8923 28.8728C41.3343 28.9201 40.9216 27.3654 40.6541 24.2087ZM57.8826 10.9707L68.263 9.82603C68.6616 9.79226 68.9772 9.82171 69.2098 9.9144C69.4411 9.99114 69.5629 10.1013 69.575 10.2447C69.5831 10.3404 69.56 10.4467 69.5057 10.5637C67.8901 13.4786 65.5846 17.1584 62.5892 21.6032C61.1638 23.7312 60.0547 25.4229 59.2619 26.6783C59.9196 26.6707 60.7347 26.6257 61.7072 26.5433L68.8673 25.7679C69.9195 25.6788 70.7911 25.637 71.4821 25.6427C71.4553 26.4639 70.7723 26.9312 69.4331 27.0447L60.4158 28.0738C58.2954 28.2535 57.2129 28.0803 57.1683 27.5542C57.1562 27.4107 57.2064 27.2459 57.3191 27.0597C58.3343 25.2074 60.0089 22.6087 62.3428 19.2637C64.6926 15.9173 66.4089 13.2428 67.4916 11.2402C63.1541 11.7844 59.7338 12.1626 57.2308 12.3747C56.5453 12.4328 56.1863 12.2705 56.1538 11.8879C56.1106 11.3777 56.6868 11.072 57.8826 10.9707ZM80.3651 18.8925L80.4786 21.6528C80.5961 23.0398 80.8346 23.9589 81.194 24.4102C81.4123 24.7129 81.6889 24.85 82.0237 24.8216C82.1193 24.8135 82.2528 24.7781 82.4242 24.7154C82.7508 24.5914 83.0339 24.6156 83.2733 24.788C83.209 25.3554 82.6746 25.6817 81.6702 25.7668C80.9847 25.8249 80.506 25.5765 80.2342 25.0214C80.0223 24.6058 79.8495 24.0826 79.7158 23.4516C79.5807 22.8047 79.4791 22.3637 79.411 22.1286C78.5422 24.1934 77.6398 25.4822 76.7038 25.995C76.2285 26.2601 75.664 26.4204 75.0103 26.4757C74.3567 26.5311 73.8201 26.2635 73.4008 25.6728C72.996 25.0648 72.7422 24.155 72.6396 22.9433C72.5369 21.7317 72.6288 20.4473 72.9152 19.0903C73.2003 17.7173 73.6869 16.544 74.3752 15.5704C75.0621 14.5809 75.8599 14.0476 76.7686 13.9706C78.076 13.8598 78.9908 14.3282 79.5131 15.3759C79.9582 16.2695 80.2422 17.4417 80.3651 18.8925ZM74.4413 18.6238C74.291 19.5036 74.1932 20.3388 74.1478 21.1295C74.101 21.9042 74.1033 22.5945 74.1547 23.2003C74.2047 23.7902 74.3675 24.2902 74.6431 24.7004C74.9347 25.1093 75.2797 25.2968 75.6783 25.263C76.5392 25.1901 77.2993 24.3067 77.9587 22.613C78.618 20.9193 78.8882 19.3709 78.7693 17.9679C78.6923 17.0592 78.3897 16.3302 77.8614 15.7808C77.5101 15.4252 77.0714 15.2697 76.5453 15.3143C76.0351 15.3575 75.5905 15.7003 75.2114 16.3426C74.8469 16.9676 74.5901 17.728 74.4413 18.6238ZM83.8586 20.5474L83.1659 9.81558C83.0956 8.98655 82.9998 8.42463 82.8785 8.12982C83.1439 7.85042 83.5715 7.68572 84.1614 7.63573C84.5451 9.32135 84.8504 11.5034 85.0774 14.1818C85.145 14.9789 85.2299 16.8344 85.3323 19.7481C85.7398 15.6511 86.9081 13.5208 88.8372 13.3573C89.5228 13.2992 90.0799 13.6213 90.5088 14.3236C90.9522 15.0086 91.2657 15.8652 91.4491 16.8934C91.6326 17.9216 91.8001 18.9511 91.9517 19.982C92.3219 22.4556 92.8737 23.6613 93.6071 23.5991C93.623 23.5978 93.7704 23.5371 94.0493 23.4171C94.6708 23.1718 95.0255 23.0936 95.1133 23.1825C95.1281 23.3578 94.8999 23.602 94.4287 23.9149C93.9561 24.2119 93.5125 24.3779 93.098 24.413C92.3965 24.4725 91.8241 24.1597 91.3806 23.4747C90.9518 22.7724 90.6456 21.9072 90.4622 20.879C90.2946 19.8495 90.1437 18.8265 90.0094 17.8103C89.8897 16.7767 89.7118 15.9086 89.4756 15.206C89.2381 14.4875 88.9121 14.1458 88.4976 14.181C87.9874 14.2242 87.5644 14.822 87.2285 15.9745C86.9072 17.1097 86.6837 18.357 86.5581 19.7165C86.4324 21.076 86.2415 22.3286 85.9853 23.4743C85.7437 24.6027 85.4476 25.1818 85.0968 25.2115C84.5388 25.2588 84.1261 23.7041 83.8586 20.5474ZM102.785 16.9926L102.898 19.7528C103.016 21.1399 103.254 22.059 103.614 22.5103C103.832 22.8129 104.109 22.9501 104.443 22.9217C104.539 22.9136 104.672 22.8782 104.844 22.8155C105.17 22.6915 105.454 22.7157 105.693 22.8881C105.629 23.4555 105.094 23.7818 104.09 23.8669C103.404 23.925 102.926 23.6765 102.654 23.1215C102.442 22.7059 102.269 22.1826 102.135 21.5517C102 20.9048 101.899 20.4638 101.831 20.2287C100.962 22.2934 100.059 23.5822 99.1234 24.0951C98.6481 24.3602 98.0836 24.5204 97.43 24.5758C96.7763 24.6312 96.2398 24.3636 95.8204 23.7729C95.4156 23.1649 95.1619 22.255 95.0592 21.0434C94.9565 19.8317 95.0484 18.5474 95.3348 17.1904C95.6199 15.8174 96.1066 14.6441 96.7948 13.6705C97.4817 12.681 98.2795 12.1477 99.1883 12.0707C100.496 11.9599 101.41 12.4283 101.933 13.476C102.378 14.3696 102.662 15.5418 102.785 16.9926ZM96.8609 16.7238C96.7107 17.6037 96.6128 18.4389 96.5674 19.2296C96.5207 20.0043 96.523 20.6945 96.5743 21.3004C96.6243 21.8903 96.7871 22.3903 97.0627 22.8005C97.3543 23.2093 97.6994 23.3969 98.0979 23.3631C98.9589 23.2901 99.719 22.4068 100.378 20.7131C101.038 19.0193 101.308 17.471 101.189 16.068C101.112 15.1593 100.809 14.4302 100.281 13.8809C99.9298 13.5253 99.4911 13.3698 98.965 13.4143C98.4548 13.4576 98.0101 13.8003 97.631 14.4426C97.2665 15.0677 97.0098 15.8281 96.8609 16.7238ZM108.699 21.0677L108.886 22.4247C108.916 22.7755 108.834 23.0314 108.638 23.1924C108.458 23.3362 108.264 23.4168 108.057 23.4344C107.865 23.4506 107.663 23.4356 107.451 23.3894C106.943 21.5698 106.477 19.289 106.052 16.5471C105.643 13.8038 105.407 12.2502 105.344 11.8862C105.564 11.6428 105.802 11.5102 106.057 11.4886C106.328 11.4656 106.57 11.4773 106.782 11.5235C106.885 11.9804 107.02 12.9967 107.185 14.5723C107.351 16.148 107.475 17.1331 107.556 17.5276C107.666 16.1695 107.958 14.8842 108.434 13.6717C108.697 12.991 109.068 12.4378 109.546 12.0119C110.038 11.5687 110.579 11.3222 111.169 11.2722C111.775 11.2208 112.348 11.4452 112.888 11.9454C113.443 12.4283 113.738 12.885 113.775 13.3154C113.788 13.4749 113.703 13.6105 113.52 13.7224C113.336 13.8183 113.124 13.8764 112.885 13.8967C112.661 13.9156 112.479 13.8428 112.336 13.6782C112.194 13.5136 112.09 13.3297 112.025 13.1265C111.958 12.9074 111.837 12.7169 111.663 12.555C111.489 12.3932 111.266 12.3237 110.995 12.3467C110.278 12.4075 109.719 13.1052 109.318 14.4398C108.7 16.4351 108.494 18.6444 108.699 21.0677ZM122.776 15.2985L122.889 18.0587C123.007 19.4458 123.245 20.3649 123.604 20.8162C123.823 21.1188 124.099 21.256 124.434 21.2276C124.53 21.2195 124.663 21.1841 124.835 21.1214C125.161 20.9974 125.444 21.0216 125.684 21.194C125.619 21.7614 125.085 22.0877 124.081 22.1728C123.395 22.2309 122.916 21.9824 122.645 21.4274C122.433 21.0118 122.26 20.4885 122.126 19.8576C121.991 19.2107 121.89 18.7697 121.821 18.5346C120.953 20.5993 120.05 21.8881 119.114 22.401C118.639 22.6661 118.074 22.8263 117.421 22.8817C116.767 22.9371 116.231 22.6695 115.811 22.0788C115.406 21.4708 115.153 20.5609 115.05 19.3493C114.947 18.1376 115.039 16.8533 115.326 15.4963C115.611 14.1233 116.097 12.95 116.786 11.9764C117.473 10.9869 118.27 10.4536 119.179 10.3766C120.486 10.2658 121.401 10.7342 121.924 11.7819C122.369 12.6755 122.653 13.8477 122.776 15.2985ZM116.852 15.0297C116.701 15.9096 116.604 16.7448 116.558 17.5355C116.512 18.3102 116.514 19.0004 116.565 19.6063C116.615 20.1962 116.778 20.6962 117.054 21.1064C117.345 21.5152 117.69 21.7028 118.089 21.669C118.95 21.596 119.71 20.7127 120.369 19.019C121.028 17.3252 121.299 15.7769 121.18 14.3739C121.103 13.4652 120.8 12.7361 120.272 12.1868C119.921 11.8312 119.482 11.6756 118.956 11.7202C118.446 11.7635 118.001 12.1062 117.622 12.7485C117.257 13.3736 117.001 14.134 116.852 15.0297ZM146.326 20.1191C146.101 20.4914 145.749 20.6979 145.271 20.7384C145.143 20.7492 145.014 20.7441 144.884 20.723C144.466 19.9556 144.107 18.8539 143.809 17.4179C143.525 15.9647 143.324 15.0103 143.205 14.5547C141.462 14.6382 139.721 14.7536 137.984 14.9009C136.246 15.0481 134.698 15.2516 133.339 15.5113C133.251 16.1771 133.174 17.1711 133.11 18.4933C133.06 19.7981 133.014 20.6772 132.972 21.1303C132.437 21.6413 131.924 21.749 131.434 21.4534C131.449 21.0667 131.469 20.4548 131.495 19.6176C131.52 18.7805 131.54 18.0723 131.556 17.4929C131.585 16.8963 131.634 16.1455 131.702 15.2405C131.77 14.3356 131.84 13.5588 131.914 12.9103C132.002 12.2445 132.132 11.5029 132.303 10.6855C132.474 9.8521 132.662 9.13764 132.868 8.54208C133.075 7.94652 133.336 7.33826 133.653 6.7173C133.986 6.09499 134.352 5.58226 134.751 5.17909C135.671 4.28224 136.712 3.7845 137.876 3.68587C139.04 3.58725 140.042 3.95191 140.883 4.77986C141.74 5.60645 142.429 6.72826 142.951 8.14529C143.472 9.56231 143.915 10.9941 144.278 12.4405C144.642 13.887 145 15.3661 145.353 16.8777C145.706 18.3893 146.03 19.4697 146.326 20.1191ZM140.753 7.22357C140.384 6.46804 139.942 5.89531 139.427 5.50539C138.911 5.09952 138.303 4.92631 137.601 4.98575C136.9 5.0452 136.251 5.44539 135.655 6.18633C135.06 6.92727 134.614 7.82412 134.318 8.87689C133.793 10.8322 133.511 12.6224 133.472 14.2475C135.052 13.937 136.647 13.7135 138.257 13.5771C139.867 13.4406 141.426 13.3567 142.932 13.3254C142.848 13.0916 142.681 12.5358 142.43 11.6578C142.179 10.7799 141.929 10.0142 141.681 9.36086C141.448 8.69018 141.138 7.97775 140.753 7.22357ZM149.605 3.00507C150.056 10.2248 150.445 15.86 150.772 19.9109C150.555 20.1862 150.35 20.332 150.159 20.3482C149.984 20.3631 149.829 20.336 149.695 20.2671C149.308 20.0591 149.087 19.6282 149.031 18.9745C148.413 11.3033 148.089 6.81069 148.058 5.49662C148.027 4.18255 148.082 3.41513 148.224 3.19436C148.366 2.97359 148.548 2.85375 148.771 2.83484C148.995 2.81592 149.272 2.87267 149.605 3.00507ZM6.06474 57.3438C6.05988 57.6654 6.06217 57.882 6.07163 57.9936C6.15269 58.9502 6.50249 59.6672 7.12102 60.1447C7.75549 60.6208 8.47129 60.8251 9.26844 60.7575C10.0656 60.69 10.7018 60.5236 11.1771 60.2586C11.6684 59.9921 12.0148 59.7219 12.2164 59.4479C12.7295 58.6818 13.2252 58.2785 13.7035 58.238C13.8789 58.2231 14.0902 58.2534 14.3375 58.3288C14.2442 59.1235 13.6992 59.8923 12.7024 60.6351C11.7201 61.3606 10.4398 61.7903 8.86149 61.924C7.74549 62.0186 6.75122 61.7496 5.87869 61.117C5.02075 60.4672 4.53976 59.5284 4.43573 58.3008C4.3317 57.0732 4.47019 55.8652 4.8512 54.6768C5.2468 53.4711 5.86452 52.4232 6.70436 51.5331C7.55879 50.6257 8.45632 50.1321 9.39694 50.0524C10.3535 49.9714 11.1357 50.1058 11.7434 50.4557C12.3657 50.7884 12.7086 51.3293 12.7721 52.0787C12.8896 53.4657 12.3651 54.6663 11.1986 55.6804C10.0467 56.6772 8.77719 57.2344 7.39016 57.352C7.02347 57.383 6.58167 57.3803 6.06474 57.3438ZM7.81535 56.4007C8.56466 56.3372 9.214 56.0413 9.76335 55.513C10.3127 54.9847 10.6847 54.4474 10.8792 53.901C11.0897 53.3533 11.1767 52.8642 11.1403 52.4337C11.1038 52.0033 10.9046 51.6428 10.5428 51.3523C10.1796 51.0459 9.77484 50.9116 9.32844 50.9494C8.5313 51.017 7.83657 51.6298 7.24425 52.788C6.66787 53.9448 6.28619 55.1252 6.09919 56.3293C6.81284 56.4133 7.38489 56.4371 7.81535 56.4007ZM14.461 49.9364C14.5788 49.6213 14.8768 49.4435 15.3551 49.403C15.5624 49.3854 15.7418 49.4184 15.8934 49.5019C16.4438 50.6917 16.987 51.8901 17.5228 53.0971C18.5291 55.3081 19.4391 57.0454 20.2527 58.3092C20.4227 56.3358 20.9022 54.3202 21.6912 52.2622C22.4962 50.2028 23.2972 49.1394 24.0944 49.0719C24.3335 49.0516 24.5774 49.0871 24.826 49.1785C23.1966 51.7412 22.1515 55.0412 21.6908 59.0786C21.6097 60.0168 21.4789 60.5577 21.2984 60.7015C21.1033 60.8625 20.8942 60.9525 20.671 60.9714C20.4478 60.9903 20.2684 60.9574 20.1327 60.8725C20.013 60.7863 19.9172 60.6981 19.8453 60.6079C19.7894 60.5162 19.7041 60.3629 19.5896 60.1478C19.4909 59.9314 19.4143 59.7853 19.3597 59.7096C17.4755 56.8024 15.8426 53.5446 14.461 49.9364ZM27.6436 55.5152C27.6388 55.8367 27.6411 56.0533 27.6505 56.1649C27.7316 57.1215 28.0814 57.8385 28.6999 58.316C29.3344 58.7921 30.0502 58.9964 30.8473 58.9288C31.6445 58.8613 32.2807 58.695 32.756 58.4299C33.2473 58.1634 33.5937 57.8932 33.7953 57.6192C34.3084 56.8532 34.8041 56.4499 35.2824 56.4093C35.4578 56.3945 35.6691 56.4247 35.9164 56.5001C35.8231 57.2948 35.2781 58.0636 34.2813 58.8064C33.299 59.532 32.0187 59.9616 30.4404 60.0954C29.3244 60.1899 28.3301 59.9209 27.4576 59.2884C26.5997 58.6385 26.1187 57.6997 26.0146 56.4721C25.9106 55.2445 26.0491 54.0365 26.4301 52.8481C26.8257 51.6424 27.4434 50.5945 28.2833 49.7044C29.1377 48.797 30.0352 48.3035 30.9758 48.2237C31.9324 48.1427 32.7146 48.2771 33.3223 48.6271C33.9446 48.9597 34.2875 49.5007 34.351 50.25C34.4685 51.637 33.944 52.8376 32.7775 53.8517C31.6256 54.8485 30.3561 55.4057 28.9691 55.5233C28.6024 55.5543 28.1606 55.5516 27.6436 55.5152ZM29.3943 54.572C30.1436 54.5085 30.7929 54.2126 31.3423 53.6843C31.8916 53.156 32.2636 52.6187 32.4581 52.0723C32.6686 51.5246 32.7556 51.0355 32.7192 50.605C32.6827 50.1746 32.4835 49.8141 32.1217 49.5236C31.7585 49.2172 31.3537 49.0829 30.9073 49.1207C30.1102 49.1883 29.4155 49.8011 28.8232 50.9593C28.2468 52.1161 27.8651 53.2965 27.6781 54.5006C28.3917 54.5847 28.9638 54.6084 29.3943 54.572ZM40.2836 56.973L40.4709 58.3301C40.5006 58.6808 40.4179 58.9367 40.2228 59.0978C40.0423 59.2415 39.8485 59.3222 39.6412 59.3397C39.4499 59.3559 39.2479 59.341 39.0352 59.2947C38.5278 57.4751 38.0615 55.1943 37.6365 52.4524C37.2274 49.7092 36.9913 48.1555 36.9284 47.7916C37.1486 47.5481 37.3862 47.4156 37.6413 47.3939C37.9124 47.371 38.1542 47.3826 38.3669 47.4288C38.4698 47.8857 38.6041 48.902 38.7698 50.4777C38.9354 52.0533 39.059 53.0384 39.1406 53.4329C39.2503 52.0748 39.5429 50.7895 40.0182 49.577C40.2816 48.8964 40.6522 48.3431 41.13 47.9172C41.6223 47.4741 42.1634 47.2275 42.7533 47.1775C43.3591 47.1262 43.9321 47.3506 44.4723 47.8508C45.0271 48.3336 45.3227 48.7903 45.3592 49.2208C45.3727 49.3802 45.2878 49.5158 45.1046 49.6277C44.9201 49.7236 44.7082 49.7817 44.4691 49.802C44.2459 49.8209 44.0631 49.7481 43.9207 49.5835C43.7782 49.419 43.6744 49.2351 43.609 49.0319C43.5422 48.8127 43.4217 48.6222 43.2474 48.4604C43.0731 48.2985 42.8505 48.2291 42.5794 48.252C41.862 48.3128 41.3029 49.0105 40.9022 50.3451C40.2845 52.3404 40.0783 54.5497 40.2836 56.973ZM52.5313 48.1794C52.4341 47.0315 52.7521 46.4265 53.4855 46.3644C53.629 46.3522 53.7738 46.356 53.92 46.3757C53.9362 46.567 53.9801 47.0852 54.0517 47.9301C54.1233 48.7751 54.3781 50.4556 54.8162 52.9716C55.2542 55.4876 55.5266 57.3753 55.6333 58.6348C55.8035 60.6436 55.5703 62.0604 54.9337 62.8851C54.2971 63.7098 53.1338 64.1937 51.4438 64.337C49.7698 64.4788 48.1455 64.0705 46.571 63.112C46.8282 62.737 47.188 62.5299 47.6504 62.4907C47.8271 62.4918 48.1162 62.5877 48.5178 62.7785C49.7065 63.3521 50.6755 63.6072 51.4248 63.5437C52.5408 63.4492 53.3002 63.0315 53.7031 62.2909C54.106 61.5502 54.2372 60.3508 54.0967 58.6928C54.0629 58.2942 53.9015 56.8627 53.6123 54.3983C53.6004 54.4475 53.5622 54.6595 53.4976 55.0343C53.4317 55.3932 53.3795 55.6304 53.3412 55.7461C53.3028 55.8617 53.2327 56.0764 53.1308 56.3901C53.0449 56.7025 52.9435 56.9279 52.8268 57.0662C52.7101 57.2046 52.5555 57.3702 52.3631 57.5631C52.0394 57.9117 51.6065 58.109 51.0644 58.1549C50.5383 58.1995 50.1098 58.1636 49.7788 58.0471C49.4477 57.9306 49.1578 57.7304 48.9089 57.4464C48.676 57.161 48.4577 56.8584 48.2539 56.5385C48.0661 56.2172 47.9028 55.8055 47.7639 55.3034C47.6236 54.7854 47.5034 54.3139 47.4031 53.8888C47.3188 53.4624 47.2344 52.9397 47.1498 52.3206C47.0812 51.7002 47.0213 51.1834 46.9703 50.7703C46.9351 50.3557 46.8905 49.8296 46.8365 49.1919L46.7149 47.7571C46.8514 47.4725 47.1269 47.3127 47.5414 47.2776C48.1153 47.2289 48.4198 47.4119 48.455 47.8264L48.5081 50.1582C48.6796 52.183 49.0428 53.9105 49.5976 55.3407C50.1523 56.771 50.6609 57.4665 51.1232 57.4273C51.474 57.3976 51.7686 57.18 52.0072 56.7744C52.2458 56.3688 52.4078 55.8171 52.4932 55.1194C52.5773 54.4058 52.6408 53.734 52.6837 53.1041C52.7267 52.4743 52.729 51.7435 52.6906 50.9117C52.6317 49.6482 52.5786 48.7374 52.5313 48.1794ZM58.2183 47.8179C58.926 46.5055 60.0451 45.7844 61.5756 45.6547C63.1062 45.525 64.3785 46.0434 65.3926 47.2099C66.4227 48.3751 67.0053 49.7548 67.1404 51.3491C67.2741 52.9275 66.8854 54.3092 65.9742 55.4944C65.0631 56.6796 63.8342 57.3377 62.2878 57.4687C60.7413 57.5998 59.5809 57.2646 58.8064 56.4631C58.0306 55.6457 57.5759 54.4478 57.4421 52.8695C57.2678 50.8129 57.5266 49.129 58.2183 47.8179ZM59.378 48.9962C59.2234 49.6355 59.1167 50.2708 59.0577 50.902C59.0148 51.5319 59.0163 52.1179 59.0622 52.6599C59.1068 53.1861 59.1878 53.6689 59.3054 54.1086C59.4216 54.5323 59.5936 54.9513 59.8214 55.3655C60.0478 55.7638 60.3632 56.0743 60.7674 56.2969C61.1703 56.5037 61.6348 56.5847 62.1609 56.5401C63.2291 56.4496 64.0847 55.9355 64.7279 54.9979C65.3869 54.0589 65.6638 52.9676 65.5584 51.7241C65.453 50.4805 65.0162 49.3052 64.248 48.1981C63.4943 47.0737 62.6392 46.5521 61.6826 46.6331C61.1087 46.6818 60.6234 46.9236 60.2267 47.3587C59.83 47.7937 59.5471 48.3396 59.378 48.9962ZM79.7419 55.3152C79.4806 55.6424 79.1666 55.8216 78.7999 55.8527C78.1144 55.9108 77.5731 55.5873 77.1762 54.8823C76.7792 54.1773 76.5043 53.3014 76.3513 52.2546C76.2143 51.2064 76.0933 50.1569 75.9882 49.106C75.8831 48.0551 75.7197 47.1698 75.4981 46.4499C75.2925 45.7287 74.9824 45.3856 74.5679 45.4208C74.0099 45.4681 73.5742 46.0108 73.2607 47.049C72.9632 48.0858 72.7868 49.2248 72.7314 50.4659C72.5754 53.9314 72.3078 55.889 71.9284 56.3386C71.6536 56.5064 71.4126 56.5991 71.2053 56.6167C70.998 56.6343 70.8206 56.6252 70.6731 56.5895C70.214 55.1512 69.7846 52.6425 69.385 49.0634C69.2018 47.2805 69.072 46.1274 68.9955 45.604C69.3114 45.3524 69.5889 45.2165 69.828 45.1962C70.0672 45.1759 70.2605 45.1836 70.408 45.2193C70.5459 45.8981 70.7046 47.2977 70.8843 49.4181C71.0799 51.5371 71.1992 52.7554 71.2422 53.0729C71.2935 52.7314 71.3433 52.1812 71.3914 51.4224C71.4554 50.6623 71.515 50.0391 71.5701 49.5527C71.6239 49.0503 71.7267 48.4635 71.8786 47.7923C72.0304 47.1211 72.2177 46.5834 72.4404 46.1791C72.6617 45.7589 72.984 45.3944 73.4075 45.0856C73.8295 44.7608 74.3196 44.5747 74.8776 44.5274C75.6269 44.4639 76.198 44.7608 76.5909 45.4179C76.9984 46.0578 77.2606 46.8786 77.3776 47.8803C77.4946 48.882 77.5971 49.901 77.6849 50.9373C77.7886 51.9722 77.9966 52.91 78.3087 53.7506C78.6367 54.5899 79.1144 55.1115 79.7419 55.3152ZM82.1514 50.896C82.1465 51.2175 82.1488 51.4341 82.1583 51.5457C82.2393 52.5023 82.5891 53.2193 83.2077 53.6968C83.8421 54.1729 84.558 54.3772 85.3551 54.3096C86.1522 54.2421 86.7885 54.0758 87.2638 53.8107C87.755 53.5442 88.1015 53.274 88.303 53C88.8162 52.234 89.3119 51.8307 89.7902 51.7901C89.9656 51.7753 90.1769 51.8055 90.4241 51.8809C90.3309 52.6756 89.7859 53.4444 88.789 54.1872C87.8068 54.9128 86.5265 55.3424 84.9481 55.4762C83.8321 55.5707 82.8379 55.3017 81.9653 54.6692C81.1074 54.0193 80.6264 53.0805 80.5224 51.8529C80.4184 50.6253 80.5568 49.4173 80.9379 48.2289C81.3335 47.0232 81.9512 45.9753 82.791 45.0852C83.6454 44.1778 84.543 43.6843 85.4836 43.6045C86.4402 43.5235 87.2223 43.6579 87.83 44.0079C88.4523 44.3405 88.7953 44.8815 88.8588 45.6308C88.9763 47.0178 88.4518 48.2184 87.2853 49.2325C86.1333 50.2293 84.8638 50.7865 83.4768 50.9041C83.1101 50.9351 82.6683 50.9324 82.1514 50.896ZM83.902 49.9528C84.6513 49.8893 85.3007 49.5934 85.85 49.0651C86.3994 48.5368 86.7713 47.9995 86.9659 47.4531C87.1764 46.9054 87.2634 46.4163 87.2269 45.9858C87.1904 45.5554 86.9913 45.1949 86.6295 44.9044C86.2663 44.598 85.8615 44.4637 85.4151 44.5015C84.618 44.5691 83.9232 45.1819 83.3309 46.3401C82.7545 47.4969 82.3728 48.6773 82.1859 49.8814C82.8995 49.9655 83.4715 49.9892 83.902 49.9528ZM105.316 44.7901C105.039 45.1187 104.749 45.2958 104.446 45.3215C104.143 45.3471 103.885 45.2405 103.672 45.0017C103.474 44.7455 103.306 44.4707 103.169 44.1772C103.03 43.8678 102.799 43.5984 102.474 43.369C102.164 43.1223 101.786 43.0178 101.34 43.0557C100.723 43.1721 100.195 43.6665 99.7553 44.5388C99.314 45.3951 99.0157 46.3276 98.8603 47.3363C98.7049 48.3451 98.6644 49.2878 98.7387 50.1647C98.8117 51.0256 99.1143 51.7547 99.6466 52.3518C100.194 52.9317 100.882 53.1865 101.711 53.1163C102.667 53.0352 103.404 52.6356 103.921 51.9173C104.136 51.6101 104.335 51.3042 104.518 50.9997C104.971 50.2868 105.405 49.9129 105.82 49.8777C105.963 49.8656 106.174 49.8879 106.452 49.9446C106.502 50.5345 106.026 51.3616 105.024 52.426C104.037 53.4731 102.914 54.05 101.654 54.1568C100.395 54.2635 99.3645 53.9494 98.5636 53.2144C97.7773 52.4621 97.3301 51.4482 97.222 50.1728C97.0828 48.5307 97.3422 46.8548 98.0002 45.1451C98.3312 44.3142 98.8179 43.6146 99.4602 43.0464C100.101 42.4621 100.844 42.1342 101.689 42.0626C102.534 41.991 103.236 42.2206 103.795 42.7513C104.368 43.2647 104.875 43.9443 105.316 44.7901ZM115.687 46.0067L115.801 48.767C115.918 50.154 116.157 51.0732 116.516 51.5244C116.734 51.8271 117.011 51.9642 117.346 51.9358C117.441 51.9277 117.575 51.8923 117.746 51.8296C118.073 51.7056 118.356 51.7298 118.595 51.9022C118.531 52.4696 117.997 52.7959 116.992 52.8811C116.307 52.9391 115.828 52.6907 115.556 52.1357C115.344 51.7201 115.171 51.1968 115.038 50.5658C114.903 49.9189 114.801 49.4779 114.733 49.2428C113.864 51.3076 112.962 52.5964 112.026 53.1092C111.55 53.3743 110.986 53.5346 110.332 53.59C109.679 53.6453 109.142 53.3777 108.723 52.787C108.318 52.179 108.064 51.2692 107.962 50.0575C107.859 48.8459 107.951 47.5615 108.237 46.2045C108.522 44.8315 109.009 43.6582 109.697 42.6846C110.384 41.6951 111.182 41.1618 112.091 41.0848C113.398 40.974 114.313 41.4425 114.835 42.4901C115.28 43.3837 115.564 44.5559 115.687 46.0067ZM109.763 45.738C109.613 46.6178 109.515 47.453 109.47 48.2437C109.423 49.0184 109.425 49.7087 109.477 50.3145C109.527 50.9044 109.689 51.4044 109.965 51.8146C110.257 52.2235 110.602 52.411 111 52.3772C111.861 52.3043 112.621 51.4209 113.281 49.7272C113.94 48.0335 114.21 46.4851 114.091 45.0822C114.014 44.1734 113.712 43.4444 113.183 42.895C112.832 42.5394 112.393 42.3839 111.867 42.4285C111.357 42.4717 110.912 42.8145 110.533 43.4568C110.169 44.0818 109.912 44.8422 109.763 45.738ZM129.229 51.1215C128.967 51.4487 128.653 51.6279 128.287 51.659C127.601 51.7171 127.06 51.3936 126.663 50.6886C126.266 49.9836 125.991 49.1077 125.838 48.0609C125.701 47.0127 125.58 45.9632 125.475 44.9123C125.37 43.8614 125.206 42.9761 124.985 42.2562C124.779 41.535 124.469 41.1919 124.055 41.2271C123.497 41.2744 123.061 41.8171 122.747 42.8553C122.45 43.8921 122.273 45.0311 122.218 46.2722C122.062 49.7377 121.794 51.6953 121.415 52.1449C121.14 52.3128 120.899 52.4054 120.692 52.423C120.485 52.4406 120.307 52.4315 120.16 52.3958C119.701 50.9575 119.271 48.4488 118.872 44.8697C118.688 43.0868 118.559 41.9337 118.482 41.4103C118.798 41.1587 119.076 41.0228 119.315 41.0025C119.554 40.9822 119.747 40.9899 119.895 41.0256C120.033 41.7044 120.191 43.104 120.371 45.2244C120.567 47.3434 120.686 48.5617 120.729 48.8792C120.78 48.5377 120.83 47.9875 120.878 47.2287C120.942 46.4686 121.002 45.8454 121.057 45.359C121.111 44.8566 121.213 44.2699 121.365 43.5986C121.517 42.9274 121.704 42.3897 121.927 41.9854C122.148 41.5652 122.471 41.2007 122.894 40.8919C123.316 40.5671 123.806 40.381 124.364 40.3337C125.114 40.2702 125.685 40.5671 126.078 41.2242C126.485 41.8641 126.747 42.6849 126.864 43.6866C126.981 44.6883 127.084 45.7073 127.172 46.7436C127.275 47.7785 127.483 48.7163 127.795 49.5569C128.123 50.3962 128.601 50.9178 129.229 51.1215ZM139.396 38.8913C140.847 38.7683 141.901 39.2731 142.559 40.4056C142.915 41.0017 143.212 41.5706 143.451 42.1124C143.689 42.6542 143.882 43.4086 144.028 44.3757C144.249 45.8503 144.44 47.5362 144.601 49.4334C144.76 51.3147 144.433 52.8518 143.619 54.0448C142.822 55.2524 141.555 55.9298 139.817 56.0771C138.095 56.223 136.613 55.7866 135.371 54.7679C135.662 54.422 135.992 54.2335 136.358 54.2025C136.741 54.17 137.273 54.2856 137.953 54.549C138.651 54.8271 139.375 54.9344 140.124 54.8709C140.874 54.8074 141.48 54.5793 141.945 54.1867C142.411 53.81 142.737 53.3006 142.923 52.6586C143.229 51.5248 143.313 50.1527 143.177 48.5425C143.156 48.3034 143.058 47.4206 142.88 45.8941C142.56 47.2379 142.038 48.374 141.314 49.3025C140.589 50.215 139.724 50.7138 138.719 50.7989C137.715 50.8841 136.936 50.5005 136.382 49.6482C135.842 48.7787 135.524 47.7699 135.427 46.622C135.33 45.4742 135.394 44.3447 135.621 43.2335C135.847 42.1064 136.286 41.1219 136.937 40.2799C137.588 39.4379 138.408 38.975 139.396 38.8913ZM137.169 42.741C137.022 43.4601 136.926 44.1346 136.883 44.7644C136.84 45.3943 136.846 46.0281 136.9 46.6658C136.953 47.2876 137.139 47.9703 137.459 48.7139C137.795 49.4562 138.218 49.8058 138.728 49.7625C139.732 49.6774 140.562 48.8524 141.216 47.2876C141.869 45.7068 142.13 44.1512 142.001 42.6207C141.956 42.0946 141.659 41.5256 141.109 40.9138C140.574 40.2848 139.94 40.0013 139.207 40.0635C138.696 40.1067 138.262 40.3843 137.904 40.8964C137.562 41.4071 137.317 42.022 137.169 42.741ZM148.173 45.3011C148.168 45.6226 148.17 45.8392 148.179 45.9508C148.261 46.9074 148.61 47.6244 149.229 48.1019C149.863 48.578 150.579 48.7823 151.376 48.7147C152.173 48.6472 152.81 48.4809 153.285 48.2158C153.776 47.9494 154.123 47.6791 154.324 47.4051C154.837 46.6391 155.333 46.2358 155.811 46.1952C155.987 46.1804 156.198 46.2106 156.445 46.286C156.352 47.0807 155.807 47.8495 154.81 48.5923C153.828 49.3179 152.548 49.7475 150.969 49.8813C149.853 49.9758 148.859 49.7068 147.987 49.0743C147.129 48.4244 146.648 47.4856 146.544 46.258C146.44 45.0304 146.578 43.8224 146.959 42.634C147.355 41.4283 147.972 40.3804 148.812 39.4903C149.667 38.5829 150.564 38.0894 151.505 38.0097C152.461 37.9286 153.243 38.063 153.851 38.413C154.474 38.7456 154.816 39.2866 154.88 40.0359C154.997 41.4229 154.473 42.6235 153.306 43.6376C152.154 44.6345 150.885 45.1916 149.498 45.3092C149.131 45.3403 148.689 45.3376 148.173 45.3011ZM149.923 44.3579C150.672 44.2944 151.322 43.9985 151.871 43.4702C152.421 42.9419 152.792 42.4046 152.987 41.8582C153.198 41.3105 153.285 40.8214 153.248 40.391C153.212 39.9605 153.012 39.6 152.651 39.3095C152.287 39.0031 151.883 38.8688 151.436 38.9066C150.639 38.9742 149.944 39.587 149.352 40.7452C148.776 41.902 148.394 43.0824 148.207 44.2865C148.921 44.3706 149.493 44.3944 149.923 44.3579ZM157.842 39.279C157.125 39.3398 156.624 39.2057 156.339 38.8765C156.317 38.6215 156.404 38.4134 156.599 38.2523C156.81 38.0899 157.042 37.982 157.294 37.9285C157.545 37.859 157.957 37.7841 158.528 37.7035C158.539 37.269 158.516 36.717 158.46 36.0474C158.418 35.3605 158.384 34.7772 158.36 34.2976C158.301 33.034 158.426 32.2446 158.737 31.9292C158.87 31.7895 159.016 31.7129 159.175 31.6994C159.35 31.6846 159.503 31.6877 159.633 31.7087C159.779 32.8526 159.861 33.5441 159.882 33.7832L160.042 37.3825C160.075 37.3958 160.164 37.3963 160.307 37.3841L162.023 37.1665C163.266 37.0611 163.904 37.1997 163.937 37.5823C163.983 38.1244 163.787 38.4622 163.348 38.5957C163.145 38.6611 162.9 38.7059 162.613 38.7302C162.342 38.7532 161.981 38.7517 161.529 38.7258C161.092 38.6825 160.777 38.669 160.586 38.6852C160.395 38.7014 160.268 38.7202 160.205 38.7416C160.197 39.208 160.212 39.6723 160.251 40.1347C160.289 40.5811 160.345 41.1464 160.419 41.8306C160.508 42.4975 160.64 43.2972 160.815 44.2297C161.006 45.1609 161.306 45.9544 161.715 46.6102C162.123 47.2501 162.597 47.547 163.14 47.5011C163.411 47.4781 163.721 47.3475 164.07 47.1091C164.418 46.8549 164.687 46.7196 164.878 46.7034C165.086 46.6859 165.265 46.7188 165.417 46.8023C165.583 46.8685 165.671 46.9574 165.68 47.069C165.709 47.4038 165.393 47.7597 164.735 48.1367C164.091 48.4963 163.53 48.6964 163.052 48.7369C161.298 48.8856 160.065 47.32 159.354 44.0404C159.145 43.0946 158.91 41.4606 158.649 39.1384C158.398 39.2078 158.129 39.2547 157.842 39.279Z" fill="#2E2E2E"/>
</svg>
